STARTFONT 2.1
FONT -FontForge-Courgette-Book-R-Normal--20-200-72-72-P-103-ISO10646-1
SIZE 20 72 72
FONTBOUNDINGBOX 26 26 -4 -6
COMMENT "Generated by fontforge, http://fontforge.sourceforge.net"
COMMENT "Copyright (c) 2012, Sorkin Type Co (www.sorkintype.com) with Reserved Font Name "Courgette"."
STARTPROPERTIES 40
FOUNDRY "FontForge"
FAMILY_NAME "Courgette"
WEIGHT_NAME "Book"
SLANT "R"
SETWIDTH_NAME "Normal"
ADD_STYLE_NAME ""
PIXEL_SIZE 20
POINT_SIZE 200
RESOLUTION_X 72
RESOLUTION_Y 72
SPACING "P"
AVERAGE_WIDTH 103
CHARSET_REGISTRY "ISO10646"
CHARSET_ENCODING "1"
FONTNAME_REGISTRY ""
CHARSET_COLLECTIONS "ISO8859-2 ISO8859-9 ISO8859-4 ISO10646-1"
FONT_NAME "Courgette-Regular"
FACE_NAME "Courgette Regular"
COPYRIGHT "Copyright (c) 2012, Sorkin Type Co (www.sorkintype.com) with Reserved Font Name "Courgette"."
FONT_VERSION "1.002"
FONT_ASCENT 16
FONT_DESCENT 4
UNDERLINE_POSITION -2
UNDERLINE_THICKNESS 1
X_HEIGHT 9
CAP_HEIGHT 14
DEFAULT_CHAR 1
RAW_ASCENT 799
RAW_DESCENT 200
NORM_SPACE 6
RELATIVE_WEIGHT 40
RELATIVE_SETWIDTH 50
SUPERSCRIPT_X 0
SUPERSCRIPT_Y 9
SUPERSCRIPT_SIZE 12
SUBSCRIPT_X 0
SUBSCRIPT_Y 2
SUBSCRIPT_SIZE 12
AVG_LOWERCASE_WIDTH 99
AVG_UPPERCASE_WIDTH 116
ENDPROPERTIES
CHARS 407
STARTCHAR .null.dup1
ENCODING 0
SWIDTH 0 0
DWIDTH 0 0
BBX 1 1 0 0
BITMAP
00
ENDCHAR
STARTCHAR uni0001
ENCODING 1
SWIDTH 0 0
DWIDTH 0 0
BBX 1 1 0 0
BITMAP
00
ENDCHAR
STARTCHAR uni0002
ENCODING 2
SWIDTH 0 0
DWIDTH 0 0
BBX 1 1 0 0
BITMAP
00
ENDCHAR
STARTCHAR uni0003
ENCODING 3
SWIDTH 0 0
DWIDTH 0 0
BBX 1 1 0 0
BITMAP
00
ENDCHAR
STARTCHAR uni0004
ENCODING 4
SWIDTH 0 0
DWIDTH 0 0
BBX 1 1 0 0
BITMAP
00
ENDCHAR
STARTCHAR uni0005
ENCODING 5
SWIDTH 0 0
DWIDTH 0 0
BBX 1 1 0 0
BITMAP
00
ENDCHAR
STARTCHAR uni0006
ENCODING 6
SWIDTH 0 0
DWIDTH 0 0
BBX 1 1 0 0
BITMAP
00
ENDCHAR
STARTCHAR uni0007
ENCODING 7
SWIDTH 0 0
DWIDTH 0 0
BBX 1 1 0 0
BITMAP
00
ENDCHAR
STARTCHAR uni0008
ENCODING 8
SWIDTH 0 0
DWIDTH 0 0
BBX 1 1 0 0
BITMAP
00
ENDCHAR
STARTCHAR uni0009
ENCODING 9
SWIDTH 0 0
DWIDTH 0 0
BBX 1 1 0 0
BITMAP
00
ENDCHAR
STARTCHAR nonmarkingreturn
ENCODING 13
SWIDTH 0 0
DWIDTH 0 0
BBX 1 1 0 0
BITMAP
00
ENDCHAR
STARTCHAR uni0015
ENCODING 21
SWIDTH 0 0
DWIDTH 0 0
BBX 1 1 0 0
BITMAP
00
ENDCHAR
STARTCHAR uni0016
ENCODING 22
SWIDTH 0 0
DWIDTH 0 0
BBX 1 1 0 0
BITMAP
00
ENDCHAR
STARTCHAR uni0017
ENCODING 23
SWIDTH 0 0
DWIDTH 0 0
BBX 1 1 0 0
BITMAP
00
ENDCHAR
STARTCHAR uni0018
ENCODING 24
SWIDTH 0 0
DWIDTH 0 0
BBX 1 1 0 0
BITMAP
00
ENDCHAR
STARTCHAR uni0019
ENCODING 25
SWIDTH 0 0
DWIDTH 0 0
BBX 1 1 0 0
BITMAP
00
ENDCHAR
STARTCHAR space
ENCODING 32
SWIDTH 307 0
DWIDTH 6 0
BBX 1 1 0 0
BITMAP
00
ENDCHAR
STARTCHAR exclam
ENCODING 33
SWIDTH 417 0
DWIDTH 8 0
BBX 7 15 2 0
BITMAP
06
0E
1C
18
38
30
30
60
60
60
40
00
E0
E0
C0
ENDCHAR
STARTCHAR quotedbl
ENCODING 34
SWIDTH 437 0
DWIDTH 9 0
BBX 7 5 3 11
BITMAP
66
EE
CC
88
88
ENDCHAR
STARTCHAR numbersign
ENCODING 35
SWIDTH 725 0
DWIDTH 15 0
BBX 13 15 1 0
BITMAP
0110
0330
0330
0260
0660
7FF8
0CC0
0CC0
0880
FFF0
1980
1100
1300
3300
2200
ENDCHAR
STARTCHAR dollar
ENCODING 36
SWIDTH 545 0
DWIDTH 11 0
BBX 11 21 1 -3
BITMAP
0020
00C0
00C0
0780
0CC0
1860
3060
30E0
31C0
3980
3800
1C00
1C00
0E00
4600
C600
E400
7800
6000
6000
4000
ENDCHAR
STARTCHAR percent
ENCODING 37
SWIDTH 876 0
DWIDTH 18 0
BBX 15 15 1 0
BITMAP
1C04
360C
6618
6630
C660
4CE0
78C0
0180
031C
0636
0C66
18C6
18CE
30CC
6078
ENDCHAR
STARTCHAR ampersand
ENCODING 38
SWIDTH 563 0
DWIDTH 11 0
BBX 10 15 1 0
BITMAP
0780
1C40
3840
70C0
61C0
6380
6000
3C00
3800
6000
C7C0
C300
C200
C600
7800
ENDCHAR
STARTCHAR quotesingle
ENCODING 39
SWIDTH 231 0
DWIDTH 5 0
BBX 3 5 3 11
BITMAP
60
E0
C0
80
80
ENDCHAR
STARTCHAR parenleft
ENCODING 40
SWIDTH 478 0
DWIDTH 10 0
BBX 10 23 2 -5
BITMAP
0040
0180
0300
0600
0C00
0C00
1800
3000
3000
6000
6000
6000
E000
C000
C000
C000
C000
C000
6000
6000
6000
3000
1800
ENDCHAR
STARTCHAR parenright
ENCODING 41
SWIDTH 478 0
DWIDTH 10 0
BBX 10 23 -2 -5
BITMAP
0200
0700
0100
0180
0180
00C0
00C0
00C0
00C0
00C0
00C0
01C0
0180
0180
0380
0300
0700
0600
0C00
1800
3000
6000
C000
ENDCHAR
STARTCHAR asterisk
ENCODING 42
SWIDTH 518 0
DWIDTH 10 0
BBX 7 8 3 7
BITMAP
18
18
B0
FE
78
70
D8
88
ENDCHAR
STARTCHAR plus
ENCODING 43
SWIDTH 617 0
DWIDTH 12 0
BBX 10 10 1 2
BITMAP
0400
0400
0400
0400
FFC0
0400
0400
0400
0400
0400
ENDCHAR
STARTCHAR comma
ENCODING 44
SWIDTH 312 0
DWIDTH 6 0
BBX 4 6 0 -3
BITMAP
20
70
70
20
60
C0
ENDCHAR
STARTCHAR hyphen
ENCODING 45
SWIDTH 452 0
DWIDTH 9 0
BBX 6 1 2 6
BITMAP
FC
ENDCHAR
STARTCHAR period
ENCODING 46
SWIDTH 270 0
DWIDTH 5 0
BBX 4 3 0 0
BITMAP
60
F0
60
ENDCHAR
STARTCHAR slash
ENCODING 47
SWIDTH 405 0
DWIDTH 8 0
BBX 14 21 -2 -3
BITMAP
000C
0018
0010
0030
0060
0060
00C0
00C0
0180
0100
0300
0600
0600
0C00
0C00
1800
1800
3000
2000
6000
C000
ENDCHAR
STARTCHAR zero
ENCODING 48
SWIDTH 621 0
DWIDTH 12 0
BBX 11 15 1 0
BITMAP
03C0
0660
0C20
1820
3860
3060
7060
6060
60C0
E0C0
C1C0
C380
C300
6600
3C00
ENDCHAR
STARTCHAR one
ENCODING 49
SWIDTH 405 0
DWIDTH 8 0
BBX 7 15 1 0
BITMAP
06
0E
3E
76
0C
0C
0C
18
18
10
30
20
60
40
C0
ENDCHAR
STARTCHAR two
ENCODING 50
SWIDTH 524 0
DWIDTH 10 0
BBX 11 15 0 0
BITMAP
0780
0CC0
1860
1860
18C0
1CC0
01C0
0380
0700
0E00
1800
3000
6080
FF80
C700
ENDCHAR
STARTCHAR three
ENCODING 51
SWIDTH 537 0
DWIDTH 11 0
BBX 10 15 1 0
BITMAP
0780
18C0
30C0
30C0
30C0
3980
0380
0F00
1C00
0600
0300
E700
C600
CC00
7800
ENDCHAR
STARTCHAR four
ENCODING 52
SWIDTH 529 0
DWIDTH 11 0
BBX 9 15 1 0
BITMAP
1800
1C00
1800
1800
3980
3180
6180
6380
C300
7F80
0600
0400
0C00
0800
1000
ENDCHAR
STARTCHAR five
ENCODING 53
SWIDTH 540 0
DWIDTH 11 0
BBX 11 15 1 0
BITMAP
0FE0
0FE0
1800
1800
3000
3F00
7300
2180
0180
0380
4300
C300
C600
CC00
7800
ENDCHAR
STARTCHAR six
ENCODING 54
SWIDTH 554 0
DWIDTH 11 0
BBX 10 15 1 0
BITMAP
03C0
0E40
1C40
19C0
30C0
7000
6F00
7980
7180
E180
E180
E380
6300
6600
3C00
ENDCHAR
STARTCHAR seven
ENCODING 55
SWIDTH 473 0
DWIDTH 9 0
BBX 9 15 2 0
BITMAP
4380
7F80
7980
0300
0600
0C00
0C00
1800
3000
3000
6000
6000
E000
C000
C000
ENDCHAR
STARTCHAR eight
ENCODING 56
SWIDTH 524 0
DWIDTH 10 0
BBX 10 15 1 0
BITMAP
0F00
19C0
10C0
30C0
30C0
31C0
3980
1F00
1C00
7E00
4600
C200
C200
E600
7800
ENDCHAR
STARTCHAR nine
ENCODING 57
SWIDTH 554 0
DWIDTH 11 0
BBX 10 15 1 0
BITMAP
0780
1CC0
38C0
30C0
70C0
61C0
61C0
7380
3D80
0180
0300
4300
C600
CC00
7800
ENDCHAR
STARTCHAR colon
ENCODING 58
SWIDTH 312 0
DWIDTH 6 0
BBX 4 10 1 0
BITMAP
20
70
70
20
00
00
00
E0
E0
C0
ENDCHAR
STARTCHAR semicolon
ENCODING 59
SWIDTH 312 0
DWIDTH 6 0
BBX 5 12 0 -3
BITMAP
18
38
18
00
00
00
20
70
70
20
60
C0
ENDCHAR
STARTCHAR less
ENCODING 60
SWIDTH 637 0
DWIDTH 13 0
BBX 10 11 1 1
BITMAP
0040
01C0
0700
0E00
3800
E000
7000
1C00
0700
0180
00C0
ENDCHAR
STARTCHAR equal
ENCODING 61
SWIDTH 617 0
DWIDTH 12 0
BBX 11 5 1 5
BITMAP
7FE0
0000
0000
0000
FFC0
ENDCHAR
STARTCHAR greater
ENCODING 62
SWIDTH 606 0
DWIDTH 12 0
BBX 10 11 1 1
BITMAP
C000
7000
1C00
0700
0380
00C0
0380
0E00
1800
7000
C000
ENDCHAR
STARTCHAR question
ENCODING 63
SWIDTH 516 0
DWIDTH 10 0
BBX 9 15 2 0
BITMAP
0F00
1980
3180
3180
3380
0700
0E00
3C00
3000
6000
6000
0000
C000
E000
C000
ENDCHAR
STARTCHAR at
ENCODING 64
SWIDTH 905 0
DWIDTH 18 0
BBX 17 16 1 -2
BITMAP
01F800
070E00
080300
100100
21D980
633980
463180
C63100
CE6300
CC6200
CCE600
C73800
C00000
600000
302000
1FC000
ENDCHAR
STARTCHAR A
ENCODING 65
SWIDTH 615 0
DWIDTH 12 0
BBX 15 15 -2 0
BITMAP
000E
003E
006C
00CC
018C
0118
0318
07FC
1FFC
0C30
0C30
1870
3060
3064
E038
ENDCHAR
STARTCHAR B
ENCODING 66
SWIDTH 551 0
DWIDTH 11 0
BBX 11 15 1 0
BITMAP
1F80
78C0
6060
1860
3860
30E0
71C0
6380
7E00
E300
C180
C180
C300
CE00
7800
ENDCHAR
STARTCHAR C
ENCODING 67
SWIDTH 533 0
DWIDTH 11 0
BBX 11 15 1 0
BITMAP
03C0
0660
1C60
1860
30E0
71C0
6180
E000
E000
C000
C000
C000
C100
6300
3E00
ENDCHAR
STARTCHAR D
ENCODING 68
SWIDTH 630 0
DWIDTH 13 0
BBX 12 15 1 0
BITMAP
3F80
70E0
2060
1C30
1830
3830
3030
7070
6060
60E0
E1C0
C380
C700
CE00
7800
ENDCHAR
STARTCHAR E
ENCODING 69
SWIDTH 509 0
DWIDTH 10 0
BBX 11 15 1 0
BITMAP
07C0
0E60
1860
30C0
71C0
6380
6000
3400
3E00
7000
E000
C000
C300
C600
7C00
ENDCHAR
STARTCHAR F
ENCODING 70
SWIDTH 518 0
DWIDTH 10 0
BBX 11 15 1 0
BITMAP
7C20
FFE0
C600
C600
0C00
0C00
0C00
1F80
7F80
1800
3000
3000
6000
E000
C000
ENDCHAR
STARTCHAR G
ENCODING 71
SWIDTH 598 0
DWIDTH 12 0
BBX 11 15 1 0
BITMAP
03C0
0660
1C20
1860
30E0
71C0
61C0
6000
E000
C7E0
C1C0
C100
C300
6600
3C00
ENDCHAR
STARTCHAR H
ENCODING 72
SWIDTH 668 0
DWIDTH 13 0
BBX 15 15 -1 0
BITMAP
1E06
1306
0706
060C
060C
060C
0FFC
1C1C
0C38
1830
1830
3070
3060
6068
C070
ENDCHAR
STARTCHAR I
ENCODING 73
SWIDTH 327 0
DWIDTH 7 0
BBX 7 15 0 0
BITMAP
3C
16
06
0E
0E
0C
0C
1C
18
18
30
30
60
E0
C0
ENDCHAR
STARTCHAR J
ENCODING 74
SWIDTH 393 0
DWIDTH 8 0
BBX 11 20 -3 -5
BITMAP
03E0
0F60
0C60
0060
0060
00E0
00C0
00C0
01C0
0180
0380
0300
0300
0600
0E00
0C00
1800
3800
7000
C000
ENDCHAR
STARTCHAR K
ENCODING 75
SWIDTH 616 0
DWIDTH 12 0
BBX 14 15 -1 0
BITMAP
1E18
360C
060C
061C
0618
0E30
0C60
0D80
1F00
1B00
1980
31C0
30C0
60E0
C078
ENDCHAR
STARTCHAR L
ENCODING 76
SWIDTH 517 0
DWIDTH 10 0
BBX 11 15 0 0
BITMAP
01C0
0320
0620
0C60
0C60
1CC0
19C0
1900
3000
3000
7000
6000
4000
FF80
F180
ENDCHAR
STARTCHAR M
ENCODING 77
SWIDTH 931 0
DWIDTH 19 0
BBX 21 15 -2 0
BITMAP
001838
007878
00D8F0
00B9B0
01B170
033360
027260
0666E0
0464C0
0C6CC0
1868C0
1879C0
3071C0
6060D0
E060E0
ENDCHAR
STARTCHAR N
ENCODING 78
SWIDTH 708 0
DWIDTH 14 0
BBX 16 15 0 0
BITMAP
038E
0706
0F07
0F06
1B06
1B06
330C
338C
2398
6190
61B0
61A0
40E0
C0E0
4040
ENDCHAR
STARTCHAR O
ENCODING 79
SWIDTH 655 0
DWIDTH 13 0
BBX 12 15 1 0
BITMAP
03E0
0630
0C30
1830
3830
3030
7030
6070
E070
C060
C0C0
C1C0
C380
6700
3C00
ENDCHAR
STARTCHAR P
ENCODING 80
SWIDTH 553 0
DWIDTH 11 0
BBX 13 15 -1 0
BITMAP
07E0
1E38
0318
0618
0618
0E38
0C70
0DE0
1F80
1800
1800
3000
3000
6000
C000
ENDCHAR
STARTCHAR Q
ENCODING 81
SWIDTH 655 0
DWIDTH 13 0
BBX 12 18 2 -3
BITMAP
07C0
1C60
3860
3060
6060
E060
C060
C0E0
C0C0
C180
C380
E700
4E00
1800
7C00
0700
0390
00F0
ENDCHAR
STARTCHAR R
ENCODING 82
SWIDTH 623 0
DWIDTH 12 0
BBX 14 15 -1 0
BITMAP
07E0
1E18
1A18
031C
0618
0618
0E30
0CE0
0FC0
1980
1980
38C0
30C0
6060
C078
ENDCHAR
STARTCHAR S
ENCODING 83
SWIDTH 474 0
DWIDTH 9 0
BBX 11 15 0 0
BITMAP
0780
0C40
1860
1860
3860
39C0
39C0
1800
1C00
0E00
0600
4600
C600
6600
7800
ENDCHAR
STARTCHAR T
ENCODING 84
SWIDTH 471 0
DWIDTH 9 0
BBX 12 15 1 0
BITMAP
7C10
FFE0
C600
4600
0600
0E00
0C00
0C00
1C00
1800
1800
3000
3000
6000
C000
ENDCHAR
STARTCHAR U
ENCODING 85
SWIDTH 624 0
DWIDTH 12 0
BBX 14 15 0 0
BITMAP
0E0C
0E1C
0E18
0C38
1C30
1870
1870
30E0
30E0
71E0
61C0
62C0
E4C0
E8C0
7070
ENDCHAR
STARTCHAR V
ENCODING 86
SWIDTH 587 0
DWIDTH 12 0
BBX 12 15 2 0
BITMAP
7870
F830
5C30
1830
3870
3060
70C0
61C0
E380
C700
CC00
D800
F000
E000
C000
ENDCHAR
STARTCHAR W
ENCODING 87
SWIDTH 941 0
DWIDTH 19 0
BBX 19 15 1 0
BITMAP
3800C0
7C00E0
4C00E0
0C1860
1C7060
18F0E0
31E0C0
31E0C0
73C0C0
66C180
6CC100
C8C300
D8C600
50CC00
607000
ENDCHAR
STARTCHAR X
ENCODING 88
SWIDTH 552 0
DWIDTH 11 0
BBX 15 15 -1 0
BITMAP
0306
071C
0738
0630
0660
07C0
0380
0300
0300
0700
0F80
1980
31C0
60F0
C0E0
ENDCHAR
STARTCHAR Y
ENCODING 89
SWIDTH 580 0
DWIDTH 12 0
BBX 14 20 0 -5
BITMAP
0C0C
0E1C
0C18
0C38
1C30
1870
1870
30E0
30E0
71C0
61C0
62C0
E580
E980
7300
0300
0600
0C00
1800
7000
ENDCHAR
STARTCHAR Z
ENCODING 90
SWIDTH 501 0
DWIDTH 10 0
BBX 12 15 0 0
BITMAP
10E0
1FF0
1E70
00E0
01C0
0380
0700
0E00
1C00
1800
3000
6000
CF00
FF80
E080
ENDCHAR
STARTCHAR bracketleft
ENCODING 91
SWIDTH 396 0
DWIDTH 8 0
BBX 10 21 0 -3
BITMAP
01C0
0380
0300
0300
0600
0600
0600
0C00
0C00
0C00
1800
1800
1800
3000
3000
3000
6000
6000
6000
C000
F000
ENDCHAR
STARTCHAR backslash
ENCODING 92
SWIDTH 464 0
DWIDTH 9 0
BBX 7 21 1 -3
BITMAP
80
C0
C0
40
60
60
60
20
30
30
30
10
18
18
18
08
0C
0C
04
04
06
ENDCHAR
STARTCHAR bracketright
ENCODING 93
SWIDTH 394 0
DWIDTH 8 0
BBX 10 21 -1 -3
BITMAP
03C0
00C0
00C0
0180
0180
0180
0300
0300
0300
0600
0600
0600
0C00
0C00
0C00
1800
1800
1800
3000
3000
F000
ENDCHAR
STARTCHAR asciicircum
ENCODING 94
SWIDTH 540 0
DWIDTH 11 0
BBX 9 8 2 7
BITMAP
0800
1C00
1C00
3600
6600
6300
C300
8180
ENDCHAR
STARTCHAR underscore
ENCODING 95
SWIDTH 530 0
DWIDTH 11 0
BBX 13 1 -3 -3
BITMAP
FFF8
ENDCHAR
STARTCHAR grave
ENCODING 96
SWIDTH 219 0
DWIDTH 4 0
BBX 3 5 1 10
BITMAP
C0
C0
C0
40
20
ENDCHAR
STARTCHAR a
ENCODING 97
SWIDTH 541 0
DWIDTH 11 0
BBX 10 10 1 0
BITMAP
0EC0
3B80
7180
6380
C300
C700
C600
CE00
DF80
7380
ENDCHAR
STARTCHAR b
ENCODING 98
SWIDTH 525 0
DWIDTH 11 0
BBX 9 17 1 0
BITMAP
1000
1800
1800
1800
3000
3000
3000
2700
7B80
7380
6380
E380
C300
C300
C600
CC00
7800
ENDCHAR
STARTCHAR c
ENCODING 99
SWIDTH 465 0
DWIDTH 9 0
BBX 8 10 1 0
BITMAP
0E
3B
73
63
C6
C0
C0
C2
C4
78
ENDCHAR
STARTCHAR d
ENCODING 100
SWIDTH 557 0
DWIDTH 11 0
BBX 12 17 1 0
BITMAP
0020
0030
0060
0060
0060
00C0
00C0
0EC0
1980
3180
6180
E380
C300
C700
C700
CB40
7380
ENDCHAR
STARTCHAR e
ENCODING 101
SWIDTH 471 0
DWIDTH 9 0
BBX 8 10 1 0
BITMAP
0E
33
73
63
E6
DC
E0
C2
C6
7C
ENDCHAR
STARTCHAR f
ENCODING 102
SWIDTH 393 0
DWIDTH 8 0
BBX 11 19 0 -3
BITMAP
01C0
0360
0660
06E0
0CC0
0C00
0C00
1F00
7F80
5800
3000
3000
3000
7000
6000
6000
E000
C000
C000
ENDCHAR
STARTCHAR g
ENCODING 103
SWIDTH 526 0
DWIDTH 11 0
BBX 10 16 1 -6
BITMAP
0E00
3BC0
7180
6180
E380
C300
C700
CF00
CE00
7600
0400
0C00
1800
1800
F000
4000
ENDCHAR
STARTCHAR h
ENCODING 104
SWIDTH 555 0
DWIDTH 11 0
BBX 10 17 0 0
BITMAP
0400
0600
0E00
0C00
0C00
0C00
0C00
19C0
1BC0
1EC0
34C0
39C0
3180
6380
6300
C340
C1C0
ENDCHAR
STARTCHAR i
ENCODING 105
SWIDTH 286 0
DWIDTH 6 0
BBX 5 15 1 0
BITMAP
18
38
18
00
00
70
30
30
60
60
C0
C0
C0
E0
E0
ENDCHAR
STARTCHAR j
ENCODING 106
SWIDTH 281 0
DWIDTH 6 0
BBX 9 20 -3 -5
BITMAP
0380
0380
0300
0000
0000
0700
0700
0700
0600
0600
0600
0600
0C00
0C00
1800
1800
3000
3000
6000
C000
ENDCHAR
STARTCHAR k
ENCODING 107
SWIDTH 497 0
DWIDTH 10 0
BBX 10 17 0 0
BITMAP
0400
0600
0E00
0C00
0C00
0C00
0C00
19C0
18C0
19C0
3380
3E00
3C00
6C00
6E00
C780
C380
ENDCHAR
STARTCHAR l
ENCODING 108
SWIDTH 279 0
DWIDTH 6 0
BBX 5 17 1 0
BITMAP
08
18
18
18
18
38
30
30
30
60
60
60
C0
C0
C0
D0
E0
ENDCHAR
STARTCHAR m
ENCODING 109
SWIDTH 814 0
DWIDTH 16 0
BBX 16 10 0 0
BITMAP
39CE
1BDF
1ED6
34E6
38CE
31CC
618C
6318
C31E
C20C
ENDCHAR
STARTCHAR n
ENCODING 110
SWIDTH 561 0
DWIDTH 11 0
BBX 10 10 0 0
BITMAP
39C0
1BC0
1EC0
34C0
39C0
3180
6180
6300
C340
C1C0
ENDCHAR
STARTCHAR o
ENCODING 111
SWIDTH 514 0
DWIDTH 10 0
BBX 9 10 1 0
BITMAP
0E00
3B00
7380
6380
E300
C300
C700
C600
CC00
7800
ENDCHAR
STARTCHAR p
ENCODING 112
SWIDTH 550 0
DWIDTH 11 0
BBX 11 15 -1 -5
BITMAP
1DC0
1A60
1C60
1C60
1860
38E0
30C0
31C0
3B80
6E00
6000
6000
C000
C000
8000
ENDCHAR
STARTCHAR q
ENCODING 113
SWIDTH 533 0
DWIDTH 11 0
BBX 10 15 1 -5
BITMAP
0E00
39C0
7180
6180
E380
C300
C700
C600
CE00
7600
0C00
0C00
0C00
0C00
0C00
ENDCHAR
STARTCHAR r
ENCODING 114
SWIDTH 407 0
DWIDTH 8 0
BBX 9 10 0 0
BITMAP
3180
3B80
3580
3800
3800
3000
7000
6000
E000
4000
ENDCHAR
STARTCHAR s
ENCODING 115
SWIDTH 423 0
DWIDTH 8 0
BBX 8 10 0 0
BITMAP
0F
33
33
31
38
1C
0C
CC
CC
78
ENDCHAR
STARTCHAR t
ENCODING 116
SWIDTH 358 0
DWIDTH 7 0
BBX 6 13 2 0
BITMAP
10
38
30
FC
60
60
C0
C0
C0
C0
88
F0
E0
ENDCHAR
STARTCHAR u
ENCODING 117
SWIDTH 553 0
DWIDTH 11 0
BBX 11 10 0 0
BITMAP
3860
18E0
18C0
39C0
3180
7380
6780
6500
EB00
71C0
ENDCHAR
STARTCHAR v
ENCODING 118
SWIDTH 510 0
DWIDTH 10 0
BBX 9 10 1 0
BITMAP
7380
3180
3180
6180
6100
E300
C200
C600
D800
F000
ENDCHAR
STARTCHAR w
ENCODING 119
SWIDTH 750 0
DWIDTH 15 0
BBX 14 10 1 0
BITMAP
7018
319C
338C
630C
6708
6618
CE10
D630
E7E0
C380
ENDCHAR
STARTCHAR x
ENCODING 120
SWIDTH 467 0
DWIDTH 9 0
BBX 10 10 0 0
BITMAP
10C0
3180
3300
3E00
1C00
1800
1800
3C00
6C00
C700
ENDCHAR
STARTCHAR y
ENCODING 121
SWIDTH 549 0
DWIDTH 11 0
BBX 10 16 1 -6
BITMAP
70C0
30C0
3180
7380
6380
E700
C700
CB00
D600
E600
0600
0C00
1800
1800
7000
C000
ENDCHAR
STARTCHAR z
ENCODING 122
SWIDTH 430 0
DWIDTH 9 0
BBX 9 10 0 0
BITMAP
3980
1F80
0380
0700
0C00
3800
3000
6000
FE00
E200
ENDCHAR
STARTCHAR braceleft
ENCODING 123
SWIDTH 424 0
DWIDTH 9 0
BBX 10 21 1 -3
BITMAP
01C0
0300
0300
0600
0600
0600
0600
0C00
0C00
1800
7800
2000
3000
3000
3000
6000
6000
E000
C000
C000
E000
ENDCHAR
STARTCHAR bar
ENCODING 124
SWIDTH 306 0
DWIDTH 6 0
BBX 2 21 2 -3
BITMAP
40
C0
C0
C0
C0
C0
C0
C0
C0
C0
C0
C0
C0
C0
C0
C0
C0
C0
C0
C0
40
ENDCHAR
STARTCHAR braceright
ENCODING 125
SWIDTH 424 0
DWIDTH 9 0
BBX 10 21 -1 -3
BITMAP
0380
00C0
00C0
0180
0180
0180
0300
0300
0300
0300
0300
0780
0E00
0C00
1800
1800
1800
3800
3000
3000
E000
ENDCHAR
STARTCHAR asciitilde
ENCODING 126
SWIDTH 624 0
DWIDTH 12 0
BBX 11 4 1 5
BITMAP
3C20
7E60
C7C0
8380
ENDCHAR
STARTCHAR nonbreakingspace
ENCODING 160
SWIDTH 293 0
DWIDTH 6 0
BBX 1 1 0 0
BITMAP
00
ENDCHAR
STARTCHAR exclamdown
ENCODING 161
SWIDTH 417 0
DWIDTH 8 0
BBX 7 16 1 -5
BITMAP
0C
1E
0C
00
10
10
30
60
60
60
E0
C0
C0
C0
C0
C0
ENDCHAR
STARTCHAR cent
ENCODING 162
SWIDTH 487 0
DWIDTH 10 0
BBX 9 15 1 0
BITMAP
0180
0300
0200
0F00
3900
3180
6300
6300
6000
E000
6200
3C00
3000
2000
2000
ENDCHAR
STARTCHAR sterling
ENCODING 163
SWIDTH 665 0
DWIDTH 13 0
BBX 14 15 0 0
BITMAP
0078
00C8
018C
018C
0398
0338
0770
0620
1FC0
0E00
0C00
7C00
9E10
BFF0
E1E0
ENDCHAR
STARTCHAR currency
ENCODING 164
SWIDTH 572 0
DWIDTH 11 0
BBX 11 13 1 0
BITMAP
0800
1860
1FC0
1D80
3980
3180
7180
6380
6300
6600
7E00
C300
0100
ENDCHAR
STARTCHAR yen
ENCODING 165
SWIDTH 583 0
DWIDTH 12 0
BBX 13 15 1 0
BITMAP
6018
F038
3070
18E0
19C0
0980
0B00
0F00
0E00
7F80
0C00
7F00
1800
1800
1800
ENDCHAR
STARTCHAR brokenbar
ENCODING 166
SWIDTH 292 0
DWIDTH 6 0
BBX 2 21 2 -3
BITMAP
40
C0
C0
C0
C0
C0
C0
C0
C0
00
00
00
40
C0
C0
C0
C0
C0
C0
C0
C0
ENDCHAR
STARTCHAR section
ENCODING 167
SWIDTH 583 0
DWIDTH 12 0
BBX 12 20 0 -4
BITMAP
01E0
0730
0630
0630
0670
06E0
0700
1F00
3B80
3180
31C0
30C0
38C0
1D80
1F00
0E00
4600
C600
CC00
7800
ENDCHAR
STARTCHAR dieresis
ENCODING 168
SWIDTH 412 0
DWIDTH 8 0
BBX 7 3 1 12
BITMAP
E6
EE
C6
ENDCHAR
STARTCHAR copyright
ENCODING 169
SWIDTH 871 0
DWIDTH 17 0
BBX 15 15 2 0
BITMAP
07E0
1C38
31CC
676C
4664
CC66
CCC6
98C6
9804
980C
8C8C
CF98
6030
30E0
1F80
ENDCHAR
STARTCHAR ordfeminine
ENCODING 170
SWIDTH 564 0
DWIDTH 11 0
BBX 9 9 2 6
BITMAP
0F80
3B80
3300
6300
6300
C600
C600
CE00
7780
ENDCHAR
STARTCHAR guillemotleft
ENCODING 171
SWIDTH 662 0
DWIDTH 13 0
BBX 11 8 1 2
BITMAP
0420
0C60
3180
E700
6300
7380
39C0
18C0
ENDCHAR
STARTCHAR logicalnot
ENCODING 172
SWIDTH 729 0
DWIDTH 15 0
BBX 11 6 2 2
BITMAP
FFE0
0060
0060
0060
0060
0060
ENDCHAR
STARTCHAR uni00AD
ENCODING 173
SWIDTH 833 0
DWIDTH 17 0
BBX 1 1 0 0
BITMAP
00
ENDCHAR
STARTCHAR registered
ENCODING 174
SWIDTH 742 0
DWIDTH 15 0
BBX 12 12 2 3
BITMAP
0F80
1860
2730
4990
C490
8D90
8E10
8A30
9BA0
C060
61C0
3F00
ENDCHAR
STARTCHAR macron
ENCODING 175
SWIDTH 392 0
DWIDTH 8 0
BBX 7 1 1 12
BITMAP
FE
ENDCHAR
STARTCHAR degree
ENCODING 176
SWIDTH 405 0
DWIDTH 8 0
BBX 7 6 2 9
BITMAP
3C
66
C6
C4
CC
78
ENDCHAR
STARTCHAR plusminus
ENCODING 177
SWIDTH 617 0
DWIDTH 12 0
BBX 10 13 1 0
BITMAP
0400
0400
0400
0400
FFC0
0400
0400
0400
0400
0400
0000
0000
FFC0
ENDCHAR
STARTCHAR twosuperior
ENCODING 178
SWIDTH 458 0
DWIDTH 9 0
BBX 8 10 2 5
BITMAP
1C
36
63
76
2E
1C
38
70
C4
FC
ENDCHAR
STARTCHAR threesuperior
ENCODING 179
SWIDTH 430 0
DWIDTH 9 0
BBX 7 11 2 4
BITMAP
1E
36
26
76
0E
3C
3C
CC
8C
98
F0
ENDCHAR
STARTCHAR acute
ENCODING 180
SWIDTH 322 0
DWIDTH 6 0
BBX 4 5 2 11
BITMAP
30
30
30
60
C0
ENDCHAR
STARTCHAR mu
ENCODING 181
SWIDTH 618 0
DWIDTH 12 0
BBX 13 15 -1 -5
BITMAP
0618
0E38
0C30
1C70
1860
38E0
31C0
33C0
7EF0
7C60
6000
6000
C000
C000
C000
ENDCHAR
STARTCHAR paragraph
ENCODING 182
SWIDTH 739 0
DWIDTH 15 0
BBX 16 17 1 -1
BITMAP
00FF
03EC
0FCC
1F8C
1F9C
1F98
1F98
0F18
0730
0330
0730
0620
0660
EC60
CC40
D8C0
F180
ENDCHAR
STARTCHAR periodcentered
ENCODING 183
SWIDTH 353 0
DWIDTH 7 0
BBX 4 3 2 5
BITMAP
60
F0
60
ENDCHAR
STARTCHAR cedilla
ENCODING 184
SWIDTH 301 0
DWIDTH 6 0
BBX 4 5 1 -4
BITMAP
20
30
30
F0
60
ENDCHAR
STARTCHAR onesuperior
ENCODING 185
SWIDTH 403 0
DWIDTH 8 0
BBX 6 11 2 4
BITMAP
0C
1C
7C
D8
18
18
30
30
60
40
40
ENDCHAR
STARTCHAR ordmasculine
ENCODING 186
SWIDTH 498 0
DWIDTH 10 0
BBX 8 9 2 6
BITMAP
1E
33
73
63
E3
C6
C6
CC
78
ENDCHAR
STARTCHAR guillemotright
ENCODING 187
SWIDTH 665 0
DWIDTH 13 0
BBX 11 8 1 2
BITMAP
6300
3180
18C0
0C60
1CE0
39C0
6300
8400
ENDCHAR
STARTCHAR onequarter
ENCODING 188
SWIDTH 988 0
DWIDTH 20 0
BBX 16 16 2 0
BITMAP
0010
1830
3C60
7860
98C0
18D0
3198
3118
633B
6633
C673
8C66
0C7F
180C
100C
3018
ENDCHAR
STARTCHAR onehalf
ENCODING 189
SWIDTH 988 0
DWIDTH 20 0
BBX 17 16 2 0
BITMAP
001000
183000
3C6000
786000
D8C000
18C000
318F00
311B00
633180
661B00
C60700
0C0E00
0C1C00
183800
106200
307E00
ENDCHAR
STARTCHAR threequarters
ENCODING 190
SWIDTH 1007 0
DWIDTH 20 0
BBX 18 16 1 0
BITMAP
000400
1E0C00
331800
231800
363000
0E3400
386600
0C4600
CCCC80
DD8CC0
719980
031980
021FC0
060300
040200
0C0400
ENDCHAR
STARTCHAR questiondown
ENCODING 191
SWIDTH 516 0
DWIDTH 10 0
BBX 9 15 0 -4
BITMAP
0180
0380
0380
0000
0300
0300
0600
1C00
3800
7000
E600
C600
C600
CC00
7800
ENDCHAR
STARTCHAR Agrave
ENCODING 192
SWIDTH 615 0
DWIDTH 12 0
BBX 15 20 -2 0
BITMAP
0008
0018
0018
000C
0000
000E
003E
006C
00CC
018C
0118
0318
07FC
1FFC
0C30
0C30
1870
3060
3064
E038
ENDCHAR
STARTCHAR Aacute
ENCODING 193
SWIDTH 615 0
DWIDTH 12 0
BBX 16 20 -2 0
BITMAP
0002
0003
0007
000C
0000
000E
003E
006C
00CC
018C
0118
0318
07FC
1FFC
0C30
0C30
1870
3060
3064
E038
ENDCHAR
STARTCHAR Acircumflex
ENCODING 194
SWIDTH 615 0
DWIDTH 12 0
BBX 16 20 -2 0
BITMAP
0002
0006
001B
0033
0000
000E
003E
006C
00CC
018C
0118
0318
07FC
1FFC
0C30
0C30
1870
3060
3064
E038
ENDCHAR
STARTCHAR Atilde
ENCODING 195
SWIDTH 615 0
DWIDTH 12 0
BBX 17 19 -2 0
BITMAP
001C80
003F00
000000
000000
000E00
003E00
006C00
00CC00
018C00
011800
031800
07FC00
1FFC00
0C3000
0C3000
187000
306000
306400
E03800
ENDCHAR
STARTCHAR Adieresis
ENCODING 196
SWIDTH 615 0
DWIDTH 12 0
BBX 17 19 -2 0
BITMAP
003380
003B80
003100
000000
000E00
003E00
006C00
00CC00
018C00
011800
031800
07FC00
1FFC00
0C3000
0C3000
187000
306000
307800
E03800
ENDCHAR
STARTCHAR Aring
ENCODING 197
SWIDTH 615 0
DWIDTH 12 0
BBX 16 19 -2 0
BITMAP
000E
001B
0013
0013
001E
003E
0064
00CC
018C
0198
0318
03FC
1FFC
0C30
0C30
1870
1860
3064
E038
ENDCHAR
STARTCHAR AE
ENCODING 198
SWIDTH 878 0
DWIDTH 18 0
BBX 20 15 -1 0
BITMAP
001FE0
007F30
00EE30
01DC30
0198E0
0318C0
061800
07FF00
1FFF00
183800
183000
307080
706180
603380
C01E00
ENDCHAR
STARTCHAR Ccedilla
ENCODING 199
SWIDTH 533 0
DWIDTH 11 0
BBX 11 20 1 -5
BITMAP
03C0
0660
1C60
1860
30E0
71C0
6180
6000
E000
C000
C000
C000
E100
6300
3E00
1000
1000
3000
7000
2000
ENDCHAR
STARTCHAR Egrave
ENCODING 200
SWIDTH 509 0
DWIDTH 10 0
BBX 11 20 1 0
BITMAP
0200
0300
0300
0180
0000
07C0
0E60
1860
30C0
71C0
6380
6000
3400
3E00
7000
E000
C000
C300
C600
7C00
ENDCHAR
STARTCHAR Eacute
ENCODING 201
SWIDTH 509 0
DWIDTH 10 0
BBX 11 20 1 0
BITMAP
0040
0060
00E0
0180
0000
07C0
0E60
1860
30C0
71C0
6380
6000
3400
3E00
7000
E000
C000
C300
C600
7C00
ENDCHAR
STARTCHAR Ecircumflex
ENCODING 202
SWIDTH 509 0
DWIDTH 10 0
BBX 11 20 1 0
BITMAP
0080
00C0
03C0
0660
0000
07C0
0E60
1860
30C0
71C0
6380
6000
3400
3E00
7000
E000
C000
C300
C600
7C00
ENDCHAR
STARTCHAR Edieresis
ENCODING 203
SWIDTH 509 0
DWIDTH 10 0
BBX 12 19 1 0
BITMAP
0670
0E70
0660
0000
07C0
0E60
1860
30C0
71C0
6380
6000
3400
3E00
7000
E000
C000
C300
C600
7C00
ENDCHAR
STARTCHAR Igrave
ENCODING 204
SWIDTH 327 0
DWIDTH 7 0
BBX 7 20 0 0
BITMAP
04
0C
0C
06
00
3C
16
06
0E
0E
0C
0C
1C
18
18
30
30
60
E0
C0
ENDCHAR
STARTCHAR Iacute
ENCODING 205
SWIDTH 327 0
DWIDTH 7 0
BBX 9 20 0 0
BITMAP
0080
0180
0380
0700
0000
3C00
1600
0600
0E00
0E00
0C00
0C00
1C00
1800
1800
3000
3000
6000
E000
C000
ENDCHAR
STARTCHAR Icircumflex
ENCODING 206
SWIDTH 327 0
DWIDTH 7 0
BBX 9 20 0 0
BITMAP
0100
0300
0F80
1980
0000
3C00
1600
0600
0E00
0E00
0C00
0C00
1C00
1800
1800
3000
3000
6000
E000
C000
ENDCHAR
STARTCHAR Idieresis
ENCODING 207
SWIDTH 327 0
DWIDTH 7 0
BBX 10 19 0 0
BITMAP
19C0
1DC0
18C0
0000
3C00
1600
0600
0E00
0E00
0C00
0C00
1C00
1800
1800
3000
3000
6000
E000
C000
ENDCHAR
STARTCHAR Eth
ENCODING 208
SWIDTH 630 0
DWIDTH 13 0
BBX 12 15 1 0
BITMAP
3F80
70C0
2060
1C30
1830
3830
FE70
FC60
6060
60C0
E1C0
C380
C700
CE00
7800
ENDCHAR
STARTCHAR Ntilde
ENCODING 209
SWIDTH 708 0
DWIDTH 14 0
BBX 16 19 0 0
BITMAP
0031
0079
008E
0000
038E
0706
0F07
0F06
1B06
1B06
330C
338C
2398
6190
61B0
61A0
40E0
C0E0
4040
ENDCHAR
STARTCHAR Ograve
ENCODING 210
SWIDTH 655 0
DWIDTH 13 0
BBX 12 20 1 0
BITMAP
0080
0180
00C0
0060
0000
03E0
0630
0C30
1830
3830
3030
7030
6070
E070
C060
C0C0
C1C0
C380
6700
3C00
ENDCHAR
STARTCHAR Oacute
ENCODING 211
SWIDTH 655 0
DWIDTH 13 0
BBX 13 20 1 0
BITMAP
0010
0018
0030
0060
0000
03E0
0630
0C30
1830
3830
3030
7030
6070
E070
C060
C0C0
C1C0
C380
6700
3C00
ENDCHAR
STARTCHAR Ocircumflex
ENCODING 212
SWIDTH 655 0
DWIDTH 13 0
BBX 13 20 1 0
BITMAP
0020
0070
00F0
0398
0000
03E0
0630
0C30
1830
3830
3030
7030
6070
E070
C060
C0C0
C1C0
C380
6700
3C00
ENDCHAR
STARTCHAR Otilde
ENCODING 213
SWIDTH 655 0
DWIDTH 13 0
BBX 14 19 1 0
BITMAP
01C4
03F8
0000
0000
03E0
0630
0C30
1830
3830
3030
7030
6070
E070
C060
C0C0
C1C0
C380
6700
3C00
ENDCHAR
STARTCHAR Odieresis
ENCODING 214
SWIDTH 655 0
DWIDTH 13 0
BBX 14 19 1 0
BITMAP
0198
039C
0198
0000
03E0
0630
0C30
1830
3830
3030
7030
6070
E070
C060
C0C0
C1C0
C380
6700
3C00
ENDCHAR
STARTCHAR multiply
ENCODING 215
SWIDTH 573 0
DWIDTH 11 0
BBX 8 8 2 3
BITMAP
C1
63
36
1C
1C
34
66
C3
ENDCHAR
STARTCHAR Oslash
ENCODING 216
SWIDTH 655 0
DWIDTH 13 0
BBX 13 19 2 -2
BITMAP
0038
0030
03E0
0EE0
1CF0
39B0
3130
7330
6270
E460
CC60
C8E0
D8C0
D180
E380
E600
7C00
C000
8000
ENDCHAR
STARTCHAR Ugrave
ENCODING 217
SWIDTH 624 0
DWIDTH 12 0
BBX 14 20 0 0
BITMAP
0080
0180
01C0
0060
0000
0E0C
0E1C
0E18
0C38
1C30
1870
1870
30E0
30E0
71E0
61C0
62C0
E4C0
E8C0
7070
ENDCHAR
STARTCHAR Uacute
ENCODING 218
SWIDTH 624 0
DWIDTH 12 0
BBX 14 20 0 0
BITMAP
0010
0038
0030
0060
0000
0E0C
0E1C
0E18
0C38
1C30
1870
1870
30E0
30E0
71E0
61C0
62C0
E4C0
E8C0
7070
ENDCHAR
STARTCHAR Ucircumflex
ENCODING 219
SWIDTH 624 0
DWIDTH 12 0
BBX 14 20 0 0
BITMAP
0020
0070
00F0
0318
0000
0E0C
0E1C
0E18
0C38
1C30
1870
1870
30E0
30E0
71E0
61C0
62C0
E4C0
E8C0
7070
ENDCHAR
STARTCHAR Udieresis
ENCODING 220
SWIDTH 624 0
DWIDTH 12 0
BBX 14 19 0 0
BITMAP
0398
039C
0118
0000
0E0C
0E1C
0E18
0C38
1C30
1870
1870
30E0
30E0
71E0
61C0
62C0
E4C0
E8C0
7070
ENDCHAR
STARTCHAR Yacute
ENCODING 221
SWIDTH 580 0
DWIDTH 12 0
BBX 14 25 0 -5
BITMAP
0010
0030
0030
0060
0000
0C0C
0E1C
0C18
0C38
1C30
1870
1870
30E0
30E0
71C0
61C0
62C0
E580
E980
7300
0300
0600
0C00
1800
7000
ENDCHAR
STARTCHAR Thorn
ENCODING 222
SWIDTH 527 0
DWIDTH 11 0
BBX 12 15 -1 0
BITMAP
3E00
1600
0600
0600
07C0
0E60
0C30
0C30
1C60
18E0
1FC0
3000
7000
6000
C000
ENDCHAR
STARTCHAR germandbls
ENCODING 223
SWIDTH 520 0
DWIDTH 10 0
BBX 12 19 -1 -3
BITMAP
01E0
0320
0630
0630
0C60
0C60
1CC0
1980
1900
1B00
3980
31C0
30C0
3460
6640
6780
6000
C000
8000
ENDCHAR
STARTCHAR agrave
ENCODING 224
SWIDTH 541 0
DWIDTH 11 0
BBX 10 15 1 0
BITMAP
0600
0600
0600
0200
0000
0EC0
3B80
7180
6380
C300
C700
C600
CE00
DF80
7380
ENDCHAR
STARTCHAR aacute
ENCODING 225
SWIDTH 541 0
DWIDTH 11 0
BBX 10 16 1 0
BITMAP
0100
0180
0300
0700
0C00
0000
0EC0
3B80
7180
6380
C300
C700
C600
CE00
DF80
7380
ENDCHAR
STARTCHAR acircumflex
ENCODING 226
SWIDTH 541 0
DWIDTH 11 0
BBX 10 15 1 0
BITMAP
0180
0380
0D80
18C0
0000
0EC0
3B80
7180
6380
C300
C700
C600
CE00
DF80
7380
ENDCHAR
STARTCHAR atilde
ENCODING 227
SWIDTH 541 0
DWIDTH 11 0
BBX 11 15 1 0
BITMAP
0E20
1F40
1380
0000
0000
0EC0
3B80
7180
6380
C300
C700
C600
CE00
DF80
7380
ENDCHAR
STARTCHAR adieresis
ENCODING 228
SWIDTH 541 0
DWIDTH 11 0
BBX 10 15 1 0
BITMAP
1CC0
1DC0
18C0
0000
0000
0EC0
3B80
7180
6380
C300
C700
C600
CE00
DF80
7380
ENDCHAR
STARTCHAR aring
ENCODING 229
SWIDTH 541 0
DWIDTH 11 0
BBX 10 15 1 0
BITMAP
0780
0C80
0D80
0F00
0000
0EC0
3B80
7180
6380
C300
C700
C600
CE00
DF80
7380
ENDCHAR
STARTCHAR ae
ENCODING 230
SWIDTH 769 0
DWIDTH 15 0
BBX 14 10 1 0
BITMAP
0EF8
3BCC
718C
639C
C338
C7E0
C700
CB08
DB18
71F0
ENDCHAR
STARTCHAR ccedilla
ENCODING 231
SWIDTH 465 0
DWIDTH 9 0
BBX 8 15 1 -5
BITMAP
0E
3B
73
63
C6
C0
C0
C2
C4
78
20
30
30
E0
40
ENDCHAR
STARTCHAR egrave
ENCODING 232
SWIDTH 471 0
DWIDTH 9 0
BBX 8 15 1 0
BITMAP
0C
0C
0C
06
00
0E
33
73
63
E6
DC
E0
C2
C6
7C
ENDCHAR
STARTCHAR eacute
ENCODING 233
SWIDTH 471 0
DWIDTH 9 0
BBX 8 16 1 0
BITMAP
02
03
07
06
08
00
0E
33
73
63
E6
DC
E0
C2
C6
7C
ENDCHAR
STARTCHAR ecircumflex
ENCODING 234
SWIDTH 471 0
DWIDTH 9 0
BBX 9 15 1 0
BITMAP
0300
0700
1D00
3180
0000
0E00
3300
7300
6300
E600
DC00
E000
C200
C600
7C00
ENDCHAR
STARTCHAR edieresis
ENCODING 235
SWIDTH 471 0
DWIDTH 9 0
BBX 10 15 1 0
BITMAP
1980
39C0
1980
0000
0000
0E00
3300
6300
6700
CE00
F800
C000
C200
E600
7C00
ENDCHAR
STARTCHAR igrave
ENCODING 236
SWIDTH 286 0
DWIDTH 6 0
BBX 5 15 1 0
BITMAP
30
30
30
18
00
70
30
30
60
60
C0
C0
C0
E0
E0
ENDCHAR
STARTCHAR iacute
ENCODING 237
SWIDTH 286 0
DWIDTH 6 0
BBX 6 16 1 0
BITMAP
08
0C
1C
18
20
00
70
30
30
60
60
C0
C0
C0
E0
E0
ENDCHAR
STARTCHAR icircumflex
ENCODING 238
SWIDTH 286 0
DWIDTH 6 0
BBX 7 15 1 0
BITMAP
0C
1C
74
C6
00
70
30
30
60
60
C0
C0
C0
E0
E0
ENDCHAR
STARTCHAR idieresis
ENCODING 239
SWIDTH 286 0
DWIDTH 6 0
BBX 8 15 1 0
BITMAP
E6
E7
46
00
00
70
30
30
60
60
C0
C0
C0
E0
E0
ENDCHAR
STARTCHAR eth
ENCODING 240
SWIDTH 524 0
DWIDTH 11 0
BBX 12 17 1 0
BITMAP
0100
0100
01A0
01F0
0780
04C0
00C0
0E80
3B80
7180
6180
C300
C300
C600
C600
CC00
7000
ENDCHAR
STARTCHAR ntilde
ENCODING 241
SWIDTH 561 0
DWIDTH 11 0
BBX 12 15 0 0
BITMAP
0710
0FA0
09C0
0000
0000
39C0
1BC0
1EC0
34C0
39C0
3180
6180
6300
C340
C1C0
ENDCHAR
STARTCHAR ograve
ENCODING 242
SWIDTH 514 0
DWIDTH 10 0
BBX 9 15 1 0
BITMAP
0600
0600
0600
0300
0000
0E00
3B00
7380
6380
E300
C300
C700
C600
CC00
7800
ENDCHAR
STARTCHAR oacute
ENCODING 243
SWIDTH 514 0
DWIDTH 10 0
BBX 9 16 1 0
BITMAP
0100
0180
0380
0300
0400
0000
0E00
3B00
7380
6380
E300
C300
C700
C600
CC00
7800
ENDCHAR
STARTCHAR ocircumflex
ENCODING 244
SWIDTH 514 0
DWIDTH 10 0
BBX 10 15 1 0
BITMAP
0180
0380
0E80
18C0
0000
0E00
3B00
7380
6380
E300
C300
C700
C600
CC00
7800
ENDCHAR
STARTCHAR otilde
ENCODING 245
SWIDTH 514 0
DWIDTH 10 0
BBX 11 15 1 0
BITMAP
0620
0F40
1380
0000
0000
0E00
3B00
7380
6380
E300
C300
C700
C600
CC00
7800
ENDCHAR
STARTCHAR odieresis
ENCODING 246
SWIDTH 514 0
DWIDTH 10 0
BBX 11 15 1 0
BITMAP
1CC0
1CE0
0CC0
0000
0000
0E00
3B00
7380
6380
E300
C300
C700
C600
CC00
7800
ENDCHAR
STARTCHAR divide
ENCODING 247
SWIDTH 617 0
DWIDTH 12 0
BBX 9 9 2 3
BITMAP
1C00
1C00
0000
0000
FF80
0000
0000
1C00
1C00
ENDCHAR
STARTCHAR oslash
ENCODING 248
SWIDTH 514 0
DWIDTH 10 0
BBX 10 14 1 -2
BITMAP
0080
01C0
0F00
3B00
7580
6780
CB00
D300
D700
E600
EC00
7800
C000
8000
ENDCHAR
STARTCHAR ugrave
ENCODING 249
SWIDTH 553 0
DWIDTH 11 0
BBX 11 15 0 0
BITMAP
0180
0300
0100
0180
0000
3860
18E0
18C0
31C0
3180
7380
6500
6F00
FBC0
7180
ENDCHAR
STARTCHAR uacute
ENCODING 250
SWIDTH 553 0
DWIDTH 11 0
BBX 11 16 0 0
BITMAP
0040
00C0
00C0
0180
0300
0000
3860
18E0
18C0
39C0
3180
7380
6780
6500
EB00
71C0
ENDCHAR
STARTCHAR ucircumflex
ENCODING 251
SWIDTH 553 0
DWIDTH 11 0
BBX 11 15 0 0
BITMAP
00C0
01E0
0360
0E60
0000
3860
18E0
18C0
39C0
3180
7380
6780
6500
EB00
71C0
ENDCHAR
STARTCHAR udieresis
ENCODING 252
SWIDTH 553 0
DWIDTH 11 0
BBX 12 15 0 0
BITMAP
0670
0770
0620
0000
0000
3860
18E0
18C0
39C0
3180
7380
6780
6500
EB00
71C0
ENDCHAR
STARTCHAR yacute
ENCODING 253
SWIDTH 549 0
DWIDTH 11 0
BBX 10 22 1 -6
BITMAP
0100
0180
0380
0300
0400
0000
70C0
30C0
3180
7380
6380
E700
C700
CB00
D600
E600
0600
0C00
1800
1800
7000
C000
ENDCHAR
STARTCHAR thorn
ENCODING 254
SWIDTH 552 0
DWIDTH 11 0
BBX 12 22 -2 -5
BITMAP
0100
0180
0180
0300
0300
0300
0600
06E0
0730
0E30
0E30
0C30
1C70
1860
18E0
1DC0
3700
3000
7000
6000
6000
C000
ENDCHAR
STARTCHAR ydieresis
ENCODING 255
SWIDTH 549 0
DWIDTH 11 0
BBX 11 21 1 -6
BITMAP
1CC0
1CE0
08C0
0000
0000
70C0
30C0
3180
7380
6380
E700
C700
CB00
D600
E600
0600
0C00
1800
1800
7000
C000
ENDCHAR
STARTCHAR Amacron
ENCODING 256
SWIDTH 615 0
DWIDTH 12 0
BBX 17 18 -2 0
BITMAP
003F80
000000
000000
000E00
003E00
006C00
00CC00
018C00
011800
031800
07FC00
1FFC00
0C3000
0C3000
187000
306000
306400
E03800
ENDCHAR
STARTCHAR amacron
ENCODING 257
SWIDTH 543 0
DWIDTH 11 0
BBX 10 13 1 0
BITMAP
1FC0
0000
0000
0EC0
3BC0
7180
6380
C300
C700
C600
CE00
DF80
7380
ENDCHAR
STARTCHAR Abreve
ENCODING 258
SWIDTH 615 0
DWIDTH 12 0
BBX 17 20 -2 0
BITMAP
001080
001080
001900
001E00
000000
000E00
003E00
006C00
00CC00
018C00
011800
031800
07FC00
1FFC00
0C3000
0C3000
187000
306000
307800
E03800
ENDCHAR
STARTCHAR abreve
ENCODING 259
SWIDTH 543 0
DWIDTH 11 0
BBX 10 15 1 0
BITMAP
0C40
0CC0
0780
0000
0000
0EC0
3BC0
7180
6380
C300
C700
C600
CE00
DF80
7380
ENDCHAR
STARTCHAR Aogonek
ENCODING 260
SWIDTH 615 0
DWIDTH 12 0
BBX 15 19 -2 -4
BITMAP
000E
003E
006C
00CC
018C
0118
0318
07FC
1FFC
0C30
0C30
1870
3060
3078
E038
0020
0040
00C0
00F0
ENDCHAR
STARTCHAR aogonek
ENCODING 261
SWIDTH 541 0
DWIDTH 11 0
BBX 10 14 1 -4
BITMAP
0EC0
3B80
7180
6380
C300
C700
C600
CE00
DF80
7380
0200
0400
0C00
0F00
ENDCHAR
STARTCHAR Cacute
ENCODING 262
SWIDTH 533 0
DWIDTH 11 0
BBX 13 20 1 0
BITMAP
0010
0038
0030
0060
0000
03C0
0660
1C60
1860
30E0
71C0
6180
E000
E000
C000
C000
C000
C100
6300
3E00
ENDCHAR
STARTCHAR cacute
ENCODING 263
SWIDTH 468 0
DWIDTH 9 0
BBX 10 16 1 0
BITMAP
0080
00C0
0180
0380
0600
0000
0E00
3B00
7300
6300
C600
C000
C000
C200
C400
7800
ENDCHAR
STARTCHAR Ccircumflex
ENCODING 264
SWIDTH 533 0
DWIDTH 11 0
BBX 13 20 1 0
BITMAP
0020
0060
00F0
0338
0000
03C0
0660
1C60
1860
30E0
71C0
6180
E000
E000
C000
C000
C000
C100
6300
3E00
ENDCHAR
STARTCHAR ccircumflex
ENCODING 265
SWIDTH 468 0
DWIDTH 9 0
BBX 10 15 1 0
BITMAP
0180
0380
0D80
18C0
0000
0E00
3B00
7300
6300
C600
C000
C000
C200
C400
7800
ENDCHAR
STARTCHAR Cdotaccent
ENCODING 266
SWIDTH 533 0
DWIDTH 11 0
BBX 11 19 1 0
BITMAP
00C0
01C0
00C0
0000
03C0
0660
1C60
1860
30E0
71C0
6180
E000
E000
C000
C000
C000
C100
6300
3E00
ENDCHAR
STARTCHAR cdotaccent
ENCODING 267
SWIDTH 468 0
DWIDTH 9 0
BBX 8 15 1 0
BITMAP
03
07
03
00
00
0E
3B
73
63
C6
C0
C0
C2
C4
78
ENDCHAR
STARTCHAR Ccaron
ENCODING 268
SWIDTH 533 0
DWIDTH 11 0
BBX 13 19 1 0
BITMAP
0188
01F8
00E0
0000
03C0
0660
1C60
1860
30E0
71C0
6180
E000
E000
C000
C000
C000
C100
6300
3E00
ENDCHAR
STARTCHAR ccaron
ENCODING 269
SWIDTH 468 0
DWIDTH 9 0
BBX 11 15 1 0
BITMAP
0C20
0660
0780
0600
0000
0E00
3B00
7300
6300
C600
C000
C000
C200
C400
7800
ENDCHAR
STARTCHAR Dcaron
ENCODING 270
SWIDTH 630 0
DWIDTH 13 0
BBX 12 19 1 0
BITMAP
0310
03F0
01C0
0000
3F80
70E0
2060
1C30
1830
3830
3030
7070
6060
60E0
E1C0
C380
C700
CE00
7800
ENDCHAR
STARTCHAR dcaron
ENCODING 271
SWIDTH 557 0
DWIDTH 11 0
BBX 15 17 1 0
BITMAP
0022
0036
0066
0066
0064
00C8
00C0
0EC0
1980
3180
6180
E380
C300
C700
C700
CB40
7380
ENDCHAR
STARTCHAR Dcroat
ENCODING 272
SWIDTH 630 0
DWIDTH 13 0
BBX 12 15 1 0
BITMAP
3F80
70C0
2060
1C30
1830
3830
FE70
FC60
6060
60C0
E1C0
C380
C700
CE00
7800
ENDCHAR
STARTCHAR dcroat
ENCODING 273
SWIDTH 557 0
DWIDTH 11 0
BBX 12 17 1 0
BITMAP
0020
0030
0060
07F0
0060
00C0
00C0
0EC0
1980
3180
6180
E380
C300
C700
C700
CB40
7380
ENDCHAR
STARTCHAR Emacron
ENCODING 274
SWIDTH 509 0
DWIDTH 10 0
BBX 11 18 1 0
BITMAP
0FE0
0000
0000
07C0
0E60
1860
30C0
71C0
6380
6000
3400
3E00
7000
E000
C000
C300
C600
7C00
ENDCHAR
STARTCHAR emacron
ENCODING 275
SWIDTH 471 0
DWIDTH 9 0
BBX 9 13 1 0
BITMAP
3F80
0000
0000
0E00
3300
7300
6300
E600
DC00
E000
C200
C600
7C00
ENDCHAR
STARTCHAR Ebreve
ENCODING 276
SWIDTH 509 0
DWIDTH 10 0
BBX 12 20 1 0
BITMAP
0210
0620
0620
03C0
0000
07C0
0E60
1860
30C0
71C0
6380
6000
3400
3E00
7000
E000
C000
C300
C600
7C00
ENDCHAR
STARTCHAR ebreve
ENCODING 277
SWIDTH 471 0
DWIDTH 9 0
BBX 9 15 1 0
BITMAP
1880
1980
0F00
0000
0000
0E00
3300
7300
6300
E600
DC00
E000
C200
C600
7C00
ENDCHAR
STARTCHAR Edotaccent
ENCODING 278
SWIDTH 509 0
DWIDTH 10 0
BBX 11 19 1 0
BITMAP
0380
0380
0300
0000
07C0
0E60
1860
30C0
71C0
6380
6000
3400
3E00
7000
E000
C000
C300
C600
7C00
ENDCHAR
STARTCHAR edotaccent
ENCODING 279
SWIDTH 471 0
DWIDTH 9 0
BBX 8 15 1 0
BITMAP
06
0E
06
00
00
0E
33
73
63
E6
DC
E0
C2
C6
7C
ENDCHAR
STARTCHAR Eogonek
ENCODING 280
SWIDTH 509 0
DWIDTH 10 0
BBX 11 19 1 -4
BITMAP
07C0
0E60
1860
30C0
71C0
6380
6000
3400
3E00
7000
E000
C000
C300
C600
7C00
1000
2000
6000
7800
ENDCHAR
STARTCHAR eogonek
ENCODING 281
SWIDTH 471 0
DWIDTH 9 0
BBX 8 14 1 -4
BITMAP
0E
33
73
63
E6
DC
E0
C2
C6
7C
18
30
60
78
ENDCHAR
STARTCHAR Ecaron
ENCODING 282
SWIDTH 509 0
DWIDTH 10 0
BBX 12 19 1 0
BITMAP
0630
0360
0380
0000
07C0
0E60
1860
30C0
71C0
6380
6000
3400
3E00
7000
E000
C000
C300
C600
7C00
ENDCHAR
STARTCHAR ecaron
ENCODING 283
SWIDTH 471 0
DWIDTH 9 0
BBX 10 15 1 0
BITMAP
0840
0CC0
0F80
0600
0000
0E00
3300
7300
6300
E600
DC00
E000
C200
C600
7C00
ENDCHAR
STARTCHAR Gcircumflex
ENCODING 284
SWIDTH 598 0
DWIDTH 12 0
BBX 13 20 1 0
BITMAP
0020
0060
00F0
0338
0000
03C0
0660
1C20
1860
30E0
71C0
61C0
6000
E000
C7E0
C1C0
C100
C300
6600
3C00
ENDCHAR
STARTCHAR gcircumflex
ENCODING 285
SWIDTH 526 0
DWIDTH 11 0
BBX 10 21 1 -6
BITMAP
0180
0380
0F80
18C0
0000
0E00
3BC0
7180
6180
E380
C300
C700
CF00
CE00
7600
0400
0C00
1800
1800
F000
4000
ENDCHAR
STARTCHAR Gbreve
ENCODING 286
SWIDTH 598 0
DWIDTH 12 0
BBX 13 20 1 0
BITMAP
0088
0188
0190
00E0
0000
03C0
0660
1C20
1860
30E0
71C0
61C0
6000
E000
C7E0
C1C0
C100
C300
6600
3C00
ENDCHAR
STARTCHAR gbreve
ENCODING 287
SWIDTH 526 0
DWIDTH 11 0
BBX 10 21 1 -6
BITMAP
0C40
0CC0
0780
0000
0000
0E00
3BC0
7180
6180
E380
C300
C700
CF00
CE00
7600
0400
0C00
1800
1800
F000
4000
ENDCHAR
STARTCHAR Gdotaccent
ENCODING 288
SWIDTH 598 0
DWIDTH 12 0
BBX 11 19 1 0
BITMAP
00C0
01C0
00C0
0000
03C0
0660
1C20
1860
30E0
71C0
61C0
6000
E000
C7E0
C1C0
C100
C300
6600
3C00
ENDCHAR
STARTCHAR gdotaccent
ENCODING 289
SWIDTH 526 0
DWIDTH 11 0
BBX 10 21 1 -6
BITMAP
0300
0700
0300
0000
0000
0E00
3BC0
7180
6180
E380
C300
C700
CF00
CE00
7600
0400
0C00
1800
1800
F000
4000
ENDCHAR
STARTCHAR Gcommaaccent
ENCODING 290
SWIDTH 598 0
DWIDTH 12 0
BBX 11 20 1 -5
BITMAP
03C0
0660
1C20
1860
30E0
71C0
61C0
6000
E000
C7E0
C1C0
C100
C300
6600
3C00
0000
7000
3000
6000
C000
ENDCHAR
STARTCHAR gcommaaccent
ENCODING 291
SWIDTH 526 0
DWIDTH 11 0
BBX 10 21 1 -6
BITMAP
0180
0300
0300
0200
0000
0E00
3BC0
7180
6180
E380
C300
C700
CF00
CE00
7600
0400
0C00
1800
1800
F000
4000
ENDCHAR
STARTCHAR Hcircumflex
ENCODING 292
SWIDTH 668 0
DWIDTH 13 0
BBX 15 20 -1 0
BITMAP
0010
0030
0078
019C
0000
1E06
1306
0706
060C
060C
060C
0FFC
1C1C
0C38
1830
1830
3070
3060
6068
C070
ENDCHAR
STARTCHAR hcircumflex
ENCODING 293
SWIDTH 555 0
DWIDTH 11 0
BBX 10 19 0 0
BITMAP
0300
0700
1D00
3180
0C00
0C00
0C00
0C00
0C00
19C0
1BC0
1EC0
34C0
39C0
7180
6380
6300
C340
C180
ENDCHAR
STARTCHAR Hbar
ENCODING 294
SWIDTH 668 0
DWIDTH 13 0
BBX 16 15 -1 0
BITMAP
1E06
1706
0706
3FFF
060C
0E0C
0FFC
1C18
1C30
1830
1830
3070
3060
6068
C070
ENDCHAR
STARTCHAR hbar
ENCODING 295
SWIDTH 555 0
DWIDTH 11 0
BBX 10 17 0 0
BITMAP
0400
0600
0600
3F80
0C00
0C00
0C00
19C0
1BC0
1EC0
34C0
39C0
3180
6380
6300
C340
C1C0
ENDCHAR
STARTCHAR Itilde
ENCODING 296
SWIDTH 327 0
DWIDTH 7 0
BBX 10 19 0 0
BITMAP
0E40
1E40
1380
0000
3C00
1600
0600
0E00
0E00
0C00
0C00
1C00
1800
1800
3000
3000
6000
E000
C000
ENDCHAR
STARTCHAR itilde
ENCODING 297
SWIDTH 286 0
DWIDTH 6 0
BBX 8 15 1 0
BITMAP
31
7A
9C
00
00
70
30
30
60
60
C0
C0
C0
E0
E0
ENDCHAR
STARTCHAR Imacron
ENCODING 298
SWIDTH 327 0
DWIDTH 7 0
BBX 10 18 0 0
BITMAP
1FC0
0000
0000
3C00
1600
0600
0E00
0E00
0C00
0C00
1C00
1800
1800
3000
3000
6000
E000
C000
ENDCHAR
STARTCHAR imacron
ENCODING 299
SWIDTH 286 0
DWIDTH 6 0
BBX 7 13 1 0
BITMAP
FE
00
00
70
30
30
60
60
C0
C0
C0
E0
E0
ENDCHAR
STARTCHAR Ibreve
ENCODING 300
SWIDTH 327 0
DWIDTH 7 0
BBX 10 20 0 0
BITMAP
0840
0840
0C80
0F00
0000
3C00
1600
0600
0E00
0E00
0C00
0C00
1C00
1800
1800
3000
3000
6000
E000
C000
ENDCHAR
STARTCHAR ibreve
ENCODING 301
SWIDTH 286 0
DWIDTH 6 0
BBX 7 15 1 0
BITMAP
62
66
3C
00
00
70
30
30
60
60
C0
C0
C0
E0
E0
ENDCHAR
STARTCHAR Iogonek
ENCODING 302
SWIDTH 327 0
DWIDTH 7 0
BBX 10 19 -3 -4
BITMAP
0780
02C0
00C0
01C0
0180
0180
0180
0380
0300
0300
0600
0600
0C00
1C00
1800
2000
6000
C000
F000
ENDCHAR
STARTCHAR iogonek
ENCODING 303
SWIDTH 297 0
DWIDTH 6 0
BBX 8 19 -1 -4
BITMAP
06
07
06
00
00
1C
0C
0C
18
18
18
30
30
38
38
30
60
E0
70
ENDCHAR
STARTCHAR Idotaccent
ENCODING 304
SWIDTH 327 0
DWIDTH 7 0
BBX 7 19 0 0
BITMAP
06
0E
06
00
3C
16
06
0E
0E
0C
0C
1C
18
18
30
30
60
E0
C0
ENDCHAR
STARTCHAR dotlessi
ENCODING 305
SWIDTH 286 0
DWIDTH 6 0
BBX 4 10 1 0
BITMAP
70
30
30
60
60
C0
C0
C0
E0
E0
ENDCHAR
STARTCHAR IJ
ENCODING 306
SWIDTH 720 0
DWIDTH 14 0
BBX 15 20 0 -5
BITMAP
3C3C
16E6
06C6
0E0E
0E0E
0C0C
0C0C
1C1C
1818
1838
3030
3030
6070
E060
C0C0
01C0
0180
0300
0600
1C00
ENDCHAR
STARTCHAR ij
ENCODING 307
SWIDTH 567 0
DWIDTH 11 0
BBX 11 20 1 -5
BITMAP
18C0
38E0
18C0
0000
0000
71C0
31C0
3180
6180
6180
C180
C300
C300
E300
E600
0600
0C00
1800
1800
6000
ENDCHAR
STARTCHAR Jcircumflex
ENCODING 308
SWIDTH 393 0
DWIDTH 8 0
BBX 14 25 -3 -5
BITMAP
0010
0030
00F8
019C
0000
03E0
0F60
0C60
0060
0060
00E0
00C0
00C0
01C0
0180
0380
0300
0300
0600
0E00
0C00
1800
3800
7000
C000
ENDCHAR
STARTCHAR jcircumflex
ENCODING 309
SWIDTH 282 0
DWIDTH 6 0
BBX 11 21 -3 -5
BITMAP
0080
01C0
03C0
0EC0
0860
0000
0700
0300
0300
0700
0600
0600
0600
0C00
0C00
1C00
1800
3000
3000
6000
C000
ENDCHAR
STARTCHAR Kcommaaccent
ENCODING 310
SWIDTH 616 0
DWIDTH 12 0
BBX 14 20 -1 -5
BITMAP
1E18
360C
060C
061C
0618
0E30
0C60
0D80
1F00
1B00
1980
31C0
30C0
60E0
C078
0000
0C00
0C00
0C00
1800
ENDCHAR
STARTCHAR kcommaaccent
ENCODING 311
SWIDTH 497 0
DWIDTH 10 0
BBX 10 22 0 -5
BITMAP
0400
0600
0E00
0C00
0C00
0C00
0C00
19C0
18C0
19C0
3380
3E00
3C00
6C00
6E00
C780
C380
0000
3000
3000
3000
6000
ENDCHAR
STARTCHAR kgreenlandic
ENCODING 312
SWIDTH 497 0
DWIDTH 10 0
BBX 10 10 0 0
BITMAP
39C0
18C0
19C0
3380
3700
3C00
7C00
6C00
E600
C380
ENDCHAR
STARTCHAR Lacute
ENCODING 313
SWIDTH 517 0
DWIDTH 10 0
BBX 12 20 0 0
BITMAP
0020
0030
0070
00C0
0000
01C0
0320
0620
0C60
0C60
1CC0
19C0
1900
3000
3000
7000
6000
4000
FF80
F180
ENDCHAR
STARTCHAR lacute
ENCODING 314
SWIDTH 279 0
DWIDTH 6 0
BBX 8 20 1 0
BITMAP
02
03
07
0C
00
18
18
18
18
30
30
30
60
60
60
C0
C0
C0
D0
E0
ENDCHAR
STARTCHAR Lcommaaccent
ENCODING 315
SWIDTH 517 0
DWIDTH 10 0
BBX 11 20 0 -5
BITMAP
01C0
0320
0620
0C60
0C60
1CC0
19C0
1900
3000
3000
7000
6000
4000
FF80
F180
0000
7000
3000
6000
4000
ENDCHAR
STARTCHAR lcommaaccent
ENCODING 316
SWIDTH 279 0
DWIDTH 6 0
BBX 6 22 0 -5
BITMAP
04
0C
0C
0C
0C
1C
18
18
18
30
30
30
60
60
60
68
70
00
60
60
40
80
ENDCHAR
STARTCHAR Lcaron
ENCODING 317
SWIDTH 517 0
DWIDTH 10 0
BBX 15 19 0 0
BITMAP
0006
0006
0006
0004
01C8
0320
0620
0C60
0C60
1CC0
19C0
1900
3000
3000
7000
6000
4000
FF80
F180
ENDCHAR
STARTCHAR lcaron
ENCODING 318
SWIDTH 467 0
DWIDTH 9 0
BBX 10 17 1 0
BITMAP
0880
18C0
18C0
18C0
1980
3900
3000
3000
3000
6000
6000
6000
C000
C000
C000
D000
E000
ENDCHAR
STARTCHAR Ldot
ENCODING 319
SWIDTH 668 0
DWIDTH 13 0
BBX 14 15 0 0
BITMAP
01C0
0320
0620
0C60
0C60
1CC0
19C0
1918
301C
3018
7000
6000
4000
FF80
F180
ENDCHAR
STARTCHAR ldot
ENCODING 320
SWIDTH 489 0
DWIDTH 10 0
BBX 9 17 1 0
BITMAP
0800
1800
1800
1800
1800
3800
3000
3000
3000
6300
6780
6300
C000
C000
C000
D000
E000
ENDCHAR
STARTCHAR Lslash
ENCODING 321
SWIDTH 517 0
DWIDTH 10 0
BBX 11 15 0 0
BITMAP
01C0
0320
0620
0E60
0C60
1CC0
19C0
1900
3E00
F000
6000
6000
4700
FF80
E080
ENDCHAR
STARTCHAR lslash
ENCODING 322
SWIDTH 279 0
DWIDTH 6 0
BBX 8 17 1 0
BITMAP
20
30
3F
18
18
18
30
30
30
60
60
60
C0
C0
C0
C0
E0
ENDCHAR
STARTCHAR Nacute
ENCODING 323
SWIDTH 708 0
DWIDTH 14 0
BBX 16 20 0 0
BITMAP
0004
0006
000E
0018
0000
038E
0706
0F07
0F06
1B06
1B06
330C
338C
2398
6190
61B0
61A0
40E0
C0E0
4040
ENDCHAR
STARTCHAR nacute
ENCODING 324
SWIDTH 561 0
DWIDTH 11 0
BBX 10 16 0 0
BITMAP
0040
00C0
00C0
0180
0300
0000
39C0
1BC0
1EC0
34C0
39C0
3180
6180
6300
C340
C1C0
ENDCHAR
STARTCHAR Ncommaaccent
ENCODING 325
SWIDTH 708 0
DWIDTH 14 0
BBX 16 20 0 -5
BITMAP
038E
0706
0F07
0F06
1B06
1B06
330C
338C
2398
6190
61B0
61A0
40E0
C0E0
4040
0000
0600
0600
0600
0C00
ENDCHAR
STARTCHAR ncommaaccent
ENCODING 326
SWIDTH 561 0
DWIDTH 11 0
BBX 10 15 0 -5
BITMAP
39C0
1BC0
1EC0
34C0
39C0
3180
6180
6300
C340
C1C0
0000
3800
1800
3000
6000
ENDCHAR
STARTCHAR Ncaron
ENCODING 327
SWIDTH 708 0
DWIDTH 14 0
BBX 16 19 0 0
BITMAP
0061
0036
0038
0000
038E
0706
0F07
0F06
1B06
1B06
330C
338C
2398
6190
61B0
61A0
40E0
C0E0
4040
ENDCHAR
STARTCHAR ncaron
ENCODING 328
SWIDTH 561 0
DWIDTH 11 0
BBX 12 15 0 0
BITMAP
0610
0330
03C0
0300
0000
39C0
1BC0
1EC0
34C0
39C0
3180
6180
6300
C340
C1C0
ENDCHAR
STARTCHAR Eng
ENCODING 330
SWIDTH 698 0
DWIDTH 14 0
BBX 15 20 0 -5
BITMAP
030E
0706
0F06
0B06
1B06
1306
330C
330C
638C
6398
6198
4190
C1F0
C0E0
C0C0
00C0
0180
0300
0600
1800
ENDCHAR
STARTCHAR eng
ENCODING 331
SWIDTH 561 0
DWIDTH 11 0
BBX 10 15 0 -5
BITMAP
39C0
1BC0
1EC0
34C0
38C0
31C0
6180
6180
C300
C300
0600
0E00
0C00
1800
3000
ENDCHAR
STARTCHAR Omacron
ENCODING 332
SWIDTH 655 0
DWIDTH 13 0
BBX 13 18 1 0
BITMAP
03F8
0000
0000
03E0
0630
0C30
1830
3830
3030
7030
6070
E070
C060
C0C0
C1C0
C380
6700
3C00
ENDCHAR
STARTCHAR omacron
ENCODING 333
SWIDTH 514 0
DWIDTH 10 0
BBX 10 13 1 0
BITMAP
1FC0
0000
0000
0E00
3B00
7380
6380
E300
C300
C700
C600
CC00
7800
ENDCHAR
STARTCHAR Obreve
ENCODING 334
SWIDTH 655 0
DWIDTH 13 0
BBX 13 20 1 0
BITMAP
0088
0188
0198
00F0
0000
03E0
0630
0C30
1830
3830
3030
7030
6070
E070
C060
C0C0
C1C0
C380
6700
3C00
ENDCHAR
STARTCHAR obreve
ENCODING 335
SWIDTH 514 0
DWIDTH 10 0
BBX 10 15 1 0
BITMAP
0C40
0CC0
0780
0000
0000
0E00
3B00
7380
6380
E300
C300
C700
C600
CC00
7800
ENDCHAR
STARTCHAR Ohungarumlaut
ENCODING 336
SWIDTH 655 0
DWIDTH 13 0
BBX 14 19 1 0
BITMAP
004C
00C8
0198
0120
03E0
0630
0C30
1830
3830
3030
7030
6070
E070
C060
C0C0
C1C0
C380
6700
3C00
ENDCHAR
STARTCHAR ohungarumlaut
ENCODING 337
SWIDTH 514 0
DWIDTH 10 0
BBX 11 16 1 0
BITMAP
0240
0660
06C0
0C80
1B00
0000
0E00
3B00
7380
6380
E300
C300
C700
C600
CC00
7800
ENDCHAR
STARTCHAR OE
ENCODING 338
SWIDTH 900 0
DWIDTH 18 0
BBX 19 15 2 0
BITMAP
03E7C0
063C40
0C3860
1830C0
3871C0
706380
606000
603C00
E03C00
C07000
C0E000
C0C000
C1C300
67C600
3C7C00
ENDCHAR
STARTCHAR oe
ENCODING 339
SWIDTH 777 0
DWIDTH 16 0
BBX 15 10 1 0
BITMAP
0F3C
19E4
31C6
61CC
619C
E3B8
C3C0
C784
6F98
79F0
ENDCHAR
STARTCHAR Racute
ENCODING 340
SWIDTH 623 0
DWIDTH 12 0
BBX 14 20 -1 0
BITMAP
0010
0018
0038
0060
0000
07E0
1E18
1A18
031C
0618
0618
0E30
0CE0
0FC0
1980
1980
38C0
30C0
6060
C078
ENDCHAR
STARTCHAR racute
ENCODING 341
SWIDTH 407 0
DWIDTH 8 0
BBX 9 16 0 0
BITMAP
0080
0180
0180
0300
0600
0000
3180
3B80
3580
3800
3800
3000
7000
6000
E000
4000
ENDCHAR
STARTCHAR Rcommaaccent
ENCODING 342
SWIDTH 623 0
DWIDTH 12 0
BBX 14 20 -1 -5
BITMAP
07E0
1E18
1A18
031C
0618
0618
0E30
0CE0
0FC0
1980
1980
38C0
30C0
6060
C078
0000
1C00
0C00
0800
1000
ENDCHAR
STARTCHAR rcommaaccent
ENCODING 343
SWIDTH 407 0
DWIDTH 8 0
BBX 10 15 -1 -5
BITMAP
18C0
1DC0
1AC0
1C00
1C00
1800
3800
3000
7000
2000
0000
E000
6000
4000
8000
ENDCHAR
STARTCHAR Rcaron
ENCODING 344
SWIDTH 623 0
DWIDTH 12 0
BBX 14 19 -1 0
BITMAP
0184
00D8
00E0
0000
07E0
1E18
1A18
031C
0618
0618
0E30
0CE0
0FC0
1980
1980
38C0
30C0
6060
C078
ENDCHAR
STARTCHAR rcaron
ENCODING 345
SWIDTH 407 0
DWIDTH 8 0
BBX 11 15 0 0
BITMAP
0C20
04E0
0780
0600
0000
3180
3B80
3580
3800
3800
3000
7000
6000
E000
4000
ENDCHAR
STARTCHAR Sacute
ENCODING 346
SWIDTH 474 0
DWIDTH 9 0
BBX 12 20 0 0
BITMAP
0020
0030
0070
00C0
0000
0780
0C40
1860
1860
3860
39C0
39C0
1800
1C00
0E00
0600
4600
C600
6600
7800
ENDCHAR
STARTCHAR sacute
ENCODING 347
SWIDTH 423 0
DWIDTH 8 0
BBX 9 16 0 0
BITMAP
0080
0180
0180
0300
0600
0000
0F00
3300
3300
3100
3800
1C00
0C00
CC00
CC00
7800
ENDCHAR
STARTCHAR Scircumflex
ENCODING 348
SWIDTH 474 0
DWIDTH 9 0
BBX 12 20 0 0
BITMAP
0040
0060
01E0
0330
0000
0780
0C40
1860
1860
3860
39C0
39C0
1800
1C00
0E00
0600
4600
C600
6600
7800
ENDCHAR
STARTCHAR scircumflex
ENCODING 349
SWIDTH 423 0
DWIDTH 8 0
BBX 10 15 0 0
BITMAP
0180
0380
0E80
18C0
0000
0F00
3300
3300
3100
3800
1C00
0C00
CC00
CC00
7800
ENDCHAR
STARTCHAR Scedilla
ENCODING 350
SWIDTH 474 0
DWIDTH 9 0
BBX 11 19 0 -4
BITMAP
0780
0C40
1860
1860
38E0
39C0
3980
1800
1C00
0E00
4600
4600
C600
7C00
3800
1000
1000
3000
7000
ENDCHAR
STARTCHAR scedilla
ENCODING 351
SWIDTH 423 0
DWIDTH 8 0
BBX 8 15 0 -5
BITMAP
0F
33
33
31
38
1C
0C
4C
CC
78
20
30
30
E0
60
ENDCHAR
STARTCHAR Scaron
ENCODING 352
SWIDTH 474 0
DWIDTH 9 0
BBX 13 19 0 0
BITMAP
0318
01B0
01C0
0000
0780
0C40
1860
1860
3860
39C0
39C0
1800
1C00
0E00
0600
4600
C600
6600
7800
ENDCHAR
STARTCHAR scaron
ENCODING 353
SWIDTH 423 0
DWIDTH 8 0
BBX 11 15 0 0
BITMAP
0C20
0660
07C0
0600
0000
0F00
3300
3300
3100
3800
1C00
0C00
CC00
CC00
7800
ENDCHAR
STARTCHAR Tcommaaccent
ENCODING 354
SWIDTH 471 0
DWIDTH 9 0
BBX 12 20 1 -5
BITMAP
7C10
FFE0
C600
4600
0600
0E00
0C00
0C00
1C00
1800
1800
3000
3000
6000
C000
0000
6000
6000
6000
C000
ENDCHAR
STARTCHAR tcommaaccent
ENCODING 355
SWIDTH 358 0
DWIDTH 7 0
BBX 8 18 0 -5
BITMAP
04
0C
1C
7F
38
30
30
30
60
60
64
7C
38
00
60
60
60
C0
ENDCHAR
STARTCHAR Tcaron
ENCODING 356
SWIDTH 471 0
DWIDTH 9 0
BBX 12 19 1 0
BITMAP
0310
03F0
01C0
0000
7C10
FFE0
C600
4600
0600
0E00
0C00
0C00
1C00
1800
1800
3000
3000
6000
C000
ENDCHAR
STARTCHAR tcaron
ENCODING 357
SWIDTH 497 0
DWIDTH 10 0
BBX 10 17 2 0
BITMAP
0080
00C0
00C0
0080
1180
1900
3000
FE00
6000
6000
6000
C000
C000
C000
C800
F800
F000
ENDCHAR
STARTCHAR Tbar
ENCODING 358
SWIDTH 471 0
DWIDTH 9 0
BBX 12 15 1 0
BITMAP
3C10
7FE0
C600
4600
0600
0E00
0C00
FF00
1C00
1800
1800
3000
3000
6000
C000
ENDCHAR
STARTCHAR tbar
ENCODING 359
SWIDTH 358 0
DWIDTH 7 0
BBX 8 13 0 0
BITMAP
04
0C
1C
7F
38
30
FE
60
60
60
64
7C
38
ENDCHAR
STARTCHAR Utilde
ENCODING 360
SWIDTH 624 0
DWIDTH 12 0
BBX 14 19 0 0
BITMAP
01C4
03F8
0000
0000
0E0C
0E1C
0E18
0C38
1C30
1870
1870
30E0
30E0
71E0
61C0
62C0
E4C0
E8C0
7070
ENDCHAR
STARTCHAR utilde
ENCODING 361
SWIDTH 553 0
DWIDTH 11 0
BBX 12 15 0 0
BITMAP
0310
0790
04E0
0000
0000
3860
18E0
18C0
39C0
3180
7380
6780
6500
EB00
71C0
ENDCHAR
STARTCHAR Umacron
ENCODING 362
SWIDTH 624 0
DWIDTH 12 0
BBX 14 18 0 0
BITMAP
03F8
0000
0000
0E0C
0E1C
0E18
0C38
1C30
1870
1870
30E0
30E0
71E0
61C0
62C0
E4C0
E8C0
7070
ENDCHAR
STARTCHAR umacron
ENCODING 363
SWIDTH 553 0
DWIDTH 11 0
BBX 12 13 0 0
BITMAP
07F0
0000
0000
3860
18E0
18C0
39C0
3180
7380
6780
6500
EB00
71C0
ENDCHAR
STARTCHAR Ubreve
ENCODING 364
SWIDTH 624 0
DWIDTH 12 0
BBX 14 20 0 0
BITMAP
0088
0188
0198
00F0
0000
0E0C
0E1C
0E18
0C38
1C30
1870
1870
30E0
30E0
71E0
61C0
62C0
E4C0
E8C0
7070
ENDCHAR
STARTCHAR ubreve
ENCODING 365
SWIDTH 553 0
DWIDTH 11 0
BBX 12 15 0 0
BITMAP
0210
0320
03C0
0000
0000
3860
18E0
18C0
39C0
3180
7380
6780
6500
EB00
71C0
ENDCHAR
STARTCHAR Uring
ENCODING 366
SWIDTH 624 0
DWIDTH 12 0
BBX 14 19 0 0
BITMAP
0070
0098
0198
01B0
0EEC
0E1C
0E18
0C38
1C30
1870
1870
30E0
30E0
71E0
61C0
62C0
E4C0
E8C0
7070
ENDCHAR
STARTCHAR uring
ENCODING 367
SWIDTH 553 0
DWIDTH 11 0
BBX 11 15 0 0
BITMAP
01E0
0360
0260
03C0
0000
3860
18E0
18C0
39C0
3180
7380
6780
6500
EB00
71C0
ENDCHAR
STARTCHAR Uhungarumlaut
ENCODING 368
SWIDTH 624 0
DWIDTH 12 0
BBX 14 19 0 0
BITMAP
00CC
00C8
0198
0120
0E0C
0E1C
0E18
0C38
1C30
1870
1870
30E0
30E0
71E0
61C0
62C0
E4C0
E8C0
7070
ENDCHAR
STARTCHAR uhungarumlaut
ENCODING 369
SWIDTH 553 0
DWIDTH 11 0
BBX 12 16 0 0
BITMAP
0110
0130
0330
0660
0CC0
0000
3860
18E0
18C0
39C0
3180
7380
6780
6500
EB00
71C0
ENDCHAR
STARTCHAR Uogonek
ENCODING 370
SWIDTH 684 0
DWIDTH 14 0
BBX 13 19 1 -4
BITMAP
1C08
0C18
0C18
1C30
1830
1870
3860
30E0
71E0
61C0
63C0
C2C0
C4C0
C8D0
70E0
00C0
0180
0380
01C0
ENDCHAR
STARTCHAR uogonek
ENCODING 371
SWIDTH 553 0
DWIDTH 11 0
BBX 11 14 0 -4
BITMAP
3860
18E0
18C0
39C0
3180
7380
6780
6500
EB00
71C0
0180
0200
0600
0780
ENDCHAR
STARTCHAR Wcircumflex
ENCODING 372
SWIDTH 941 0
DWIDTH 19 0
BBX 19 20 1 0
BITMAP
000800
000C00
003C00
006600
000000
3800C0
7C00E0
4C00E0
0C1860
1C7060
18F0E0
31E0C0
31E0C0
73C0C0
66C180
6CC100
C8C300
D8C600
50CC00
607000
ENDCHAR
STARTCHAR wcircumflex
ENCODING 373
SWIDTH 750 0
DWIDTH 15 0
BBX 14 15 1 0
BITMAP
0060
01E0
0360
0630
0000
7018
319C
338C
630C
6708
6618
CE10
D630
E7E0
C380
ENDCHAR
STARTCHAR Ycircumflex
ENCODING 374
SWIDTH 580 0
DWIDTH 12 0
BBX 14 25 0 -5
BITMAP
0020
0060
00F0
0338
0000
0C0C
0E1C
0C18
0C38
1C30
1870
1870
30E0
30E0
71C0
61C0
62C0
E580
E980
7300
0300
0600
0C00
1800
7000
ENDCHAR
STARTCHAR ycircumflex
ENCODING 375
SWIDTH 549 0
DWIDTH 11 0
BBX 10 21 1 -6
BITMAP
0180
0380
0F80
18C0
0000
70C0
30C0
3180
7380
6380
E700
C700
CB00
D600
E600
0600
0C00
1800
1800
7000
C000
ENDCHAR
STARTCHAR Ydieresis
ENCODING 376
SWIDTH 580 0
DWIDTH 12 0
BBX 14 25 0 -5
BITMAP
0110
03B8
0398
0000
0000
0C0C
0E1C
0C18
0C38
1C30
1870
1870
30E0
30E0
71C0
61C0
62C0
E580
E980
7300
0300
0600
0C00
1800
7000
ENDCHAR
STARTCHAR Zacute
ENCODING 377
SWIDTH 501 0
DWIDTH 10 0
BBX 12 20 0 0
BITMAP
0040
0060
00E0
0180
0000
10E0
1FF0
1E70
00E0
01C0
0380
0700
0E00
1C00
1800
3000
6000
CF00
FF80
E080
ENDCHAR
STARTCHAR zacute
ENCODING 378
SWIDTH 430 0
DWIDTH 9 0
BBX 10 16 0 0
BITMAP
0080
00C0
0180
0380
0600
0000
3980
1F80
0380
0700
0C00
3800
3000
6000
FE00
E200
ENDCHAR
STARTCHAR Zdotaccent
ENCODING 379
SWIDTH 501 0
DWIDTH 10 0
BBX 12 19 0 0
BITMAP
0380
0380
0100
0000
10E0
1FF0
1E70
00E0
01C0
0380
0700
0E00
1C00
1800
3000
6000
CF00
FF80
E080
ENDCHAR
STARTCHAR zdotaccent
ENCODING 380
SWIDTH 430 0
DWIDTH 9 0
BBX 9 15 0 0
BITMAP
0700
0700
0600
0000
0000
3980
1F80
0380
0700
0C00
3800
3000
6000
FE00
E200
ENDCHAR
STARTCHAR Zcaron
ENCODING 381
SWIDTH 501 0
DWIDTH 10 0
BBX 12 19 0 0
BITMAP
0710
0370
01C0
0000
10E0
1FF0
1E70
00E0
01C0
0380
0700
0E00
1C00
1800
3000
6000
CF00
FF80
E080
ENDCHAR
STARTCHAR zcaron
ENCODING 382
SWIDTH 430 0
DWIDTH 9 0
BBX 11 15 0 0
BITMAP
0C60
0CC0
0580
0600
0000
3980
1F80
0380
0700
0C00
3800
3000
6000
FE00
E200
ENDCHAR
STARTCHAR florin
ENCODING 402
SWIDTH 466 0
DWIDTH 9 0
BBX 16 22 -4 -5
BITMAP
000E
001A
0033
0023
0066
0066
00C0
00C0
00F0
03F8
0380
0180
0180
0300
0300
0300
0300
0600
0600
CC00
CC00
7800
ENDCHAR
STARTCHAR AEacute
ENCODING 508
SWIDTH 878 0
DWIDTH 18 0
BBX 20 20 -1 0
BITMAP
000100
000180
000380
000600
000000
001FE0
007F30
00EE30
01DC30
0198E0
0318C0
061800
07FF00
1FFF00
183800
183000
307080
706180
603380
C01E00
ENDCHAR
STARTCHAR aeacute
ENCODING 509
SWIDTH 770 0
DWIDTH 15 0
BBX 14 16 1 0
BITMAP
0040
0060
00E0
00C0
0100
0000
0EF8
3BCC
718C
639C
C338
C7E0
C700
CB08
DB18
71F0
ENDCHAR
STARTCHAR Scommaaccent
ENCODING 536
SWIDTH 474 0
DWIDTH 9 0
BBX 11 20 0 -5
BITMAP
0780
0C40
1860
1860
3860
39C0
39C0
1800
1C00
0E00
0600
4600
C600
6600
7800
0000
3000
3000
3000
6000
ENDCHAR
STARTCHAR scommaaccent
ENCODING 537
SWIDTH 423 0
DWIDTH 8 0
BBX 8 15 0 -5
BITMAP
0F
33
33
31
38
1C
0C
CC
CC
78
00
70
30
60
C0
ENDCHAR
STARTCHAR dotlessj
ENCODING 567
SWIDTH 277 0
DWIDTH 6 0
BBX 8 15 -3 -5
BITMAP
07
07
07
06
06
06
0E
0C
0C
18
18
30
30
60
C0
ENDCHAR
STARTCHAR circumflex
ENCODING 710
SWIDTH 354 0
DWIDTH 7 0
BBX 7 4 0 11
BITMAP
0C
1C
36
C6
ENDCHAR
STARTCHAR caron
ENCODING 711
SWIDTH 381 0
DWIDTH 8 0
BBX 7 4 1 11
BITMAP
C6
CC
78
60
ENDCHAR
STARTCHAR breve
ENCODING 728
SWIDTH 344 0
DWIDTH 7 0
BBX 6 3 1 12
BITMAP
C4
CC
F0
ENDCHAR
STARTCHAR dotaccent
ENCODING 729
SWIDTH 217 0
DWIDTH 4 0
BBX 3 3 1 12
BITMAP
60
E0
60
ENDCHAR
STARTCHAR ring
ENCODING 730
SWIDTH 402 0
DWIDTH 8 0
BBX 5 5 3 10
BITMAP
70
D8
98
98
F0
ENDCHAR
STARTCHAR ogonek
ENCODING 731
SWIDTH 311 0
DWIDTH 6 0
BBX 5 6 1 -4
BITMAP
18
30
60
C0
D0
E0
ENDCHAR
STARTCHAR tilde
ENCODING 732
SWIDTH 397 0
DWIDTH 8 0
BBX 8 3 1 12
BITMAP
31
7B
9E
ENDCHAR
STARTCHAR hungarumlaut
ENCODING 733
SWIDTH 392 0
DWIDTH 8 0
BBX 8 5 0 11
BITMAP
11
1B
33
66
CC
ENDCHAR
STARTCHAR pi
ENCODING 960
SWIDTH 640 0
DWIDTH 13 0
BBX 13 10 0 0
BITMAP
3FF8
4CE0
0CC0
08C0
18C0
1180
3180
7180
E1E0
C1C0
ENDCHAR
STARTCHAR uni1E02
ENCODING 7682
SWIDTH 551 0
DWIDTH 11 0
BBX 11 19 1 0
BITMAP
0380
0380
0100
0000
1F80
78C0
6060
1860
3860
30E0
71C0
6380
7E00
E300
C180
C180
C300
CE00
7800
ENDCHAR
STARTCHAR uni1E03
ENCODING 7683
SWIDTH 525 0
DWIDTH 11 0
BBX 10 17 1 0
BITMAP
1000
1800
19C0
19C0
3080
3000
3000
2700
7B80
7380
6380
E380
C300
C300
C600
CC00
7800
ENDCHAR
STARTCHAR uni1E0A
ENCODING 7690
SWIDTH 630 0
DWIDTH 13 0
BBX 12 19 1 0
BITMAP
0180
0380
0180
0000
3F80
70E0
2060
1C30
1830
3830
3030
7070
6060
60E0
E1C0
C380
C700
CE00
7800
ENDCHAR
STARTCHAR uni1E0B
ENCODING 7691
SWIDTH 557 0
DWIDTH 11 0
BBX 12 17 1 0
BITMAP
0020
0030
1C60
1C60
1860
00C0
00C0
0EC0
1980
3180
6180
E380
C300
C700
C700
CB40
7380
ENDCHAR
STARTCHAR uni1E1E
ENCODING 7710
SWIDTH 518 0
DWIDTH 10 0
BBX 11 19 1 0
BITMAP
01C0
01C0
0180
0000
7FE0
FFE0
C600
4600
0C00
0C00
1C00
1F80
7F80
1800
3000
3000
6000
E000
C000
ENDCHAR
STARTCHAR uni1E1F
ENCODING 7711
SWIDTH 393 0
DWIDTH 8 0
BBX 11 22 0 -3
BITMAP
0380
0380
0300
01C0
0360
0660
06C0
0CC0
0C00
0C00
1F00
7F80
5800
3000
3000
3000
7000
6000
6000
E000
C000
C000
ENDCHAR
STARTCHAR uni1E40
ENCODING 7744
SWIDTH 931 0
DWIDTH 19 0
BBX 21 19 -2 0
BITMAP
0001C0
0001C0
000080
000000
001838
007878
00D8F0
00B9B0
01B170
033360
027260
0666E0
0464C0
0C6CC0
1868C0
1879C0
3071C0
6060D0
E060E0
ENDCHAR
STARTCHAR uni1E41
ENCODING 7745
SWIDTH 814 0
DWIDTH 16 0
BBX 16 15 0 0
BITMAP
0060
0070
0060
0000
0000
39CE
1BDF
1ED6
34E6
38CE
31CC
618C
6318
C31E
C20C
ENDCHAR
STARTCHAR uni1E56
ENCODING 7766
SWIDTH 553 0
DWIDTH 11 0
BBX 13 19 -1 0
BITMAP
0070
0070
0020
0000
07E0
1E38
0318
0618
0618
0E38
0C70
0DE0
1F80
1800
1800
3000
3000
6000
C000
ENDCHAR
STARTCHAR uni1E57
ENCODING 7767
SWIDTH 550 0
DWIDTH 11 0
BBX 11 20 -1 -5
BITMAP
0180
01C0
0180
0000
0000
1DC0
1A60
1C60
1C60
1860
38E0
30C0
31C0
3B80
6E00
6000
6000
C000
C000
8000
ENDCHAR
STARTCHAR uni1E60
ENCODING 7776
SWIDTH 474 0
DWIDTH 9 0
BBX 11 19 0 0
BITMAP
01C0
01C0
0180
0000
0780
0C40
1860
1860
3860
39C0
39C0
1800
1C00
0E00
0600
4600
C600
6600
7800
ENDCHAR
STARTCHAR uni1E61
ENCODING 7777
SWIDTH 423 0
DWIDTH 8 0
BBX 8 15 0 0
BITMAP
03
07
03
00
00
0F
33
33
31
38
1C
0C
CC
CC
78
ENDCHAR
STARTCHAR uni1E6A
ENCODING 7786
SWIDTH 430 0
DWIDTH 9 0
BBX 11 19 1 0
BITMAP
0380
0380
0300
0000
7C20
FFE0
C600
8600
0C00
0C00
0C00
1800
1800
1800
3000
3000
6000
6000
C000
ENDCHAR
STARTCHAR uni1E6B
ENCODING 7787
SWIDTH 358 0
DWIDTH 7 0
BBX 6 15 2 0
BITMAP
1C
1C
0C
18
30
FC
60
60
C0
C0
C0
C0
88
F0
E0
ENDCHAR
STARTCHAR Wgrave
ENCODING 7808
SWIDTH 941 0
DWIDTH 19 0
BBX 19 20 1 0
BITMAP
001000
003000
003000
001800
000000
3800C0
7C00E0
4C00E0
0C1860
187060
18F0E0
31E0C0
33E0C0
63C1C0
66C180
6CC300
C8C300
D0C600
70DC00
607000
ENDCHAR
STARTCHAR wgrave
ENCODING 7809
SWIDTH 750 0
DWIDTH 15 0
BBX 14 15 1 0
BITMAP
0180
0380
0180
0080
0000
7018
319C
338C
630C
6708
6618
CE10
D630
E7E0
C380
ENDCHAR
STARTCHAR Wacute
ENCODING 7810
SWIDTH 941 0
DWIDTH 19 0
BBX 19 20 1 0
BITMAP
000400
000600
000E00
001800
000000
3800C0
7C00E0
4C00E0
0C1860
1C7060
18F0E0
31E0C0
31E0C0
73C0C0
66C180
6CC100
C8C300
D8C600
50CC00
607000
ENDCHAR
STARTCHAR wacute
ENCODING 7811
SWIDTH 750 0
DWIDTH 15 0
BBX 14 16 1 0
BITMAP
0040
0060
00C0
0180
0300
0000
7018
319C
338C
630C
6708
6618
CE10
D630
E7E0
C380
ENDCHAR
STARTCHAR Wdieresis
ENCODING 7812
SWIDTH 941 0
DWIDTH 19 0
BBX 19 19 1 0
BITMAP
006700
00E700
006600
000000
3800C0
7C00E0
4C00E0
0C1860
187060
18F0E0
31E0C0
33E0C0
63C1C0
66C180
6CC300
C8C300
D0C600
70DC00
607000
ENDCHAR
STARTCHAR wdieresis
ENCODING 7813
SWIDTH 750 0
DWIDTH 15 0
BBX 14 15 1 0
BITMAP
0730
0770
0630
0000
0000
7018
319C
338C
630C
6708
6618
CE10
D630
E7E0
C380
ENDCHAR
STARTCHAR Ygrave
ENCODING 7922
SWIDTH 580 0
DWIDTH 12 0
BBX 14 25 0 -5
BITMAP
0080
0180
01C0
00E0
0000
0C0C
0E1C
0C18
0C38
1C30
1870
1870
30E0
30E0
71C0
61C0
62C0
E580
E980
7300
0300
0600
0C00
1800
7000
ENDCHAR
STARTCHAR ygrave
ENCODING 7923
SWIDTH 549 0
DWIDTH 11 0
BBX 10 21 1 -6
BITMAP
0600
0600
0600
0300
0000
70C0
30C0
3180
7380
6380
E700
C700
CB00
D600
E600
0600
0C00
1800
1800
7000
C000
ENDCHAR
STARTCHAR endash
ENCODING 8211
SWIDTH 751 0
DWIDTH 15 0
BBX 12 1 2 6
BITMAP
FFF0
ENDCHAR
STARTCHAR emdash
ENCODING 8212
SWIDTH 1066 0
DWIDTH 21 0
BBX 18 1 2 6
BITMAP
FFFFC0
ENDCHAR
STARTCHAR quoteleft
ENCODING 8216
SWIDTH 268 0
DWIDTH 5 0
BBX 3 5 3 11
BITMAP
60
C0
C0
C0
C0
ENDCHAR
STARTCHAR quoteright
ENCODING 8217
SWIDTH 268 0
DWIDTH 5 0
BBX 3 5 3 11
BITMAP
60
60
60
60
C0
ENDCHAR
STARTCHAR quotesinglbase
ENCODING 8218
SWIDTH 268 0
DWIDTH 5 0
BBX 4 5 0 -2
BITMAP
60
70
20
60
C0
ENDCHAR
STARTCHAR quotedblleft
ENCODING 8220
SWIDTH 485 0
DWIDTH 10 0
BBX 8 5 3 11
BITMAP
33
44
CC
CC
CC
ENDCHAR
STARTCHAR quotedblright
ENCODING 8221
SWIDTH 480 0
DWIDTH 10 0
BBX 8 5 3 12
BITMAP
76
77
26
66
CC
ENDCHAR
STARTCHAR quotedblbase
ENCODING 8222
SWIDTH 463 0
DWIDTH 9 0
BBX 7 5 0 -2
BITMAP
66
76
26
66
CC
ENDCHAR
STARTCHAR dagger
ENCODING 8224
SWIDTH 488 0
DWIDTH 10 0
BBX 8 15 2 0
BITMAP
0C
0C
1C
9F
FF
18
38
30
30
30
60
60
40
C0
80
ENDCHAR
STARTCHAR daggerdbl
ENCODING 8225
SWIDTH 488 0
DWIDTH 10 0
BBX 9 15 1 0
BITMAP
0600
0600
0E00
4F80
7F80
0C00
1C00
1800
1A00
FE00
3000
3000
2000
6000
4000
ENDCHAR
STARTCHAR bullet
ENCODING 8226
SWIDTH 437 0
DWIDTH 9 0
BBX 5 5 2 4
BITMAP
70
F8
F8
F8
20
ENDCHAR
STARTCHAR ellipsis
ENCODING 8230
SWIDTH 810 0
DWIDTH 16 0
BBX 14 3 0 0
BITMAP
638C
F39C
638C
ENDCHAR
STARTCHAR perthousand
ENCODING 8240
SWIDTH 1184 0
DWIDTH 24 0
BBX 21 15 1 0
BITMAP
1C1800
363000
662000
666000
CEC000
4C8000
798000
030000
023870
066CD8
0CCD98
08CD98
189D98
3099B0
20F0E0
ENDCHAR
STARTCHAR guilsinglleft
ENCODING 8249
SWIDTH 413 0
DWIDTH 8 0
BBX 6 8 1 2
BITMAP
04
0C
30
E0
60
70
38
18
ENDCHAR
STARTCHAR guilsinglright
ENCODING 8250
SWIDTH 416 0
DWIDTH 8 0
BBX 6 8 1 2
BITMAP
60
30
18
0C
1C
38
60
80
ENDCHAR
STARTCHAR fraction
ENCODING 8260
SWIDTH 580 0
DWIDTH 12 0
BBX 10 16 1 0
BITMAP
0040
00C0
0180
0180
0300
0600
0600
0C00
0C00
1800
3000
3000
6000
6000
C000
8000
ENDCHAR
STARTCHAR Euro
ENCODING 8364
SWIDTH 622 0
DWIDTH 12 0
BBX 12 15 1 0
BITMAP
00E0
0390
0710
0E30
0C70
1C60
1820
7F00
3000
FE00
3000
3000
3080
3980
1F00
ENDCHAR
STARTCHAR trademark
ENCODING 8482
SWIDTH 1084 0
DWIDTH 22 0
BBX 17 8 3 7
BITMAP
7F3380
DE7700
10F500
30AF00
31AB00
213B00
233300
362300
ENDCHAR
STARTCHAR Omega
ENCODING 8486
SWIDTH 839 0
DWIDTH 17 0
BBX 15 15 1 0
BITMAP
07C0
1C70
3018
701C
600C
600C
E00C
E00C
600C
600C
7018
3018
1830
EC6E
FCFE
ENDCHAR
STARTCHAR partialdiff
ENCODING 8706
SWIDTH 580 0
DWIDTH 12 0
BBX 10 16 1 0
BITMAP
0780
0CC0
0C40
0C40
0040
1FC0
39C0
70C0
61C0
E180
C180
C380
C300
C600
CC00
7800
ENDCHAR
STARTCHAR Delta
ENCODING 8710
SWIDTH 663 0
DWIDTH 13 0
BBX 13 12 0 0
BITMAP
0300
0300
0780
0580
08C0
18C0
1060
3060
2030
6030
4038
FFF0
ENDCHAR
STARTCHAR product
ENCODING 8719
SWIDTH 667 0
DWIDTH 13 0
BBX 11 17 1 -2
BITMAP
7FE0
6060
6060
6060
6060
6060
6060
6060
6060
6060
6060
6060
6060
6060
6060
6060
C040
ENDCHAR
STARTCHAR summation
ENCODING 8721
SWIDTH 677 0
DWIDTH 14 0
BBX 11 17 1 -2
BITMAP
7FE0
6000
7000
3800
1C00
1C00
0E00
0700
0600
0600
0C00
1800
3000
6000
E000
FFE0
FFC0
ENDCHAR
STARTCHAR minus
ENCODING 8722
SWIDTH 617 0
DWIDTH 12 0
BBX 10 1 1 7
BITMAP
FFC0
ENDCHAR
STARTCHAR radical
ENCODING 8730
SWIDTH 709 0
DWIDTH 14 0
BBX 15 19 1 0
BITMAP
0002
0006
000E
000C
001C
0018
0038
0030
0060
2060
70C0
F0C0
3180
1980
1B00
1A00
1E00
0C00
0C00
ENDCHAR
STARTCHAR infinity
ENCODING 8734
SWIDTH 681 0
DWIDTH 14 0
BBX 12 6 1 4
BITMAP
79E0
EFB0
C710
CE30
FFE0
30C0
ENDCHAR
STARTCHAR integral
ENCODING 8747
SWIDTH 583 0
DWIDTH 12 0
BBX 16 23 -2 -4
BITMAP
0004
001F
0019
0033
0077
0066
0060
00C0
00C0
00C0
01C0
0180
0180
0380
0300
0300
0300
0600
6600
CC00
CC00
5800
7000
ENDCHAR
STARTCHAR approxequal
ENCODING 8776
SWIDTH 671 0
DWIDTH 13 0
BBX 12 9 1 2
BITMAP
1C10
7E20
47E0
4380
1800
7C20
4E40
87C0
0100
ENDCHAR
STARTCHAR notequal
ENCODING 8800
SWIDTH 617 0
DWIDTH 12 0
BBX 11 13 1 1
BITMAP
0040
0080
0180
0300
7FE0
0600
0C00
0C00
FFC0
1000
3000
6000
4000
ENDCHAR
STARTCHAR lessequal
ENCODING 8804
SWIDTH 704 0
DWIDTH 14 0
BBX 10 13 1 0
BITMAP
00C0
0380
0600
1C00
7000
E000
3800
0E00
0380
01C0
0000
0000
FFC0
ENDCHAR
STARTCHAR greaterequal
ENCODING 8805
SWIDTH 617 0
DWIDTH 12 0
BBX 10 13 1 0
BITMAP
E000
3800
1C00
0700
01C0
01C0
0700
1C00
7000
C000
0000
0000
FFC0
ENDCHAR
STARTCHAR lozenge
ENCODING 9674
SWIDTH 580 0
DWIDTH 12 0
BBX 10 15 1 0
BITMAP
0C00
1C00
1600
3600
2300
6180
C180
C0C0
C080
6180
6300
3200
1600
1C00
0C00
ENDCHAR
STARTCHAR commaaccent
ENCODING 63171
SWIDTH 250 0
DWIDTH 5 0
BBX 3 4 1 -5
BITMAP
E0
60
40
C0
ENDCHAR
STARTCHAR ff
ENCODING 64256
SWIDTH 773 0
DWIDTH 15 0
BBX 18 19 0 -3
BITMAP
01C3C0
0366C0
0666C0
06EDC0
0CCC80
0C0C00
0C1800
1BFE00
3FFF00
783000
383000
303000
307000
306000
606000
60E000
E0C000
C0C000
C18000
ENDCHAR
STARTCHAR fi
ENCODING 64257
SWIDTH 623 0
DWIDTH 12 0
BBX 13 19 0 -3
BITMAP
00F0
0398
0718
0618
0C38
0C00
1FF0
7C30
7870
3860
3060
30C0
30C0
60C0
61C0
60E0
C000
C000
8000
ENDCHAR
STARTCHAR fl
ENCODING 64258
SWIDTH 637 0
DWIDTH 13 0
BBX 14 19 -1 -3
BITMAP
0078
01CC
038C
030C
060C
060C
0618
0F98
3FB8
0C30
1830
1870
1860
3860
3068
3070
6000
E000
4000
ENDCHAR
STARTCHAR .notdef
ENCODING -1
SWIDTH 896 0
DWIDTH 18 0
BBX 19 17 1 0
BITMAP
07FFE0
0FFFC0
0FFFC0
0FFFC0
1E73C0
1E4780
1E4F80
1E1F80
3E3F00
3E3F00
3E3F00
7D1F00
718600
77DE00
FFFE00
FFFC00
FFFC00
ENDCHAR
ENDFONT
